<svg width="393" height="82" viewBox="0 0 393 82" fill="none" xmlns="http://www.w3.org/2000/svg">
<rect width="393" height="82" fill="#0D0402"/>
<path fill-rule="evenodd" clip-rule="evenodd" d="M19 21C19 19.8954 19.8954 19 21 19H35C36.1046 19 37 19.8954 37 21V35C37 36.1046 36.1046 37 35 37H21C19.8954 37 19 36.1046 19 35V21ZM33.5061 22.6521C33.9744 22.9448 34.1168 23.5618 33.8241 24.0301L31.0191 28.5181L28.2141 33.0061C28.0366 33.2901 27.7288 33.4664 27.3941 33.4757C27.0594 33.4851 26.7422 33.3264 26.5491 33.0528L23.1831 28.2843C22.8646 27.8331 22.9722 27.2092 23.4234 26.8907C23.8746 26.5722 24.4986 26.6798 24.8171 27.131L27.3155 30.6704L32.1281 22.9701C32.4208 22.5018 33.0377 22.3594 33.5061 22.6521Z" fill="#E4DAD7"/>
<path d="M57.496 34V21.335H58.856V32.725H64.466V34H57.496ZM66.3403 34V24.888H67.6153V34H66.3403ZM66.3403 23.205V21.335H67.6153V23.205H66.3403ZM74.832 34.204C74.05 34.204 73.3417 34.0283 72.707 33.677C72.0837 33.3143 71.6133 32.8043 71.296 32.147L71.5 31.96V34H70.225V21.131H71.5V26.928L71.296 26.571C71.6587 25.993 72.1403 25.534 72.741 25.194C73.353 24.854 74.05 24.684 74.832 24.684C75.6933 24.684 76.4583 24.8937 77.127 25.313C77.807 25.721 78.3397 26.282 78.725 26.996C79.1217 27.71 79.32 28.526 79.32 29.444C79.32 30.3507 79.1217 31.1667 78.725 31.892C78.3397 32.606 77.807 33.1727 77.127 33.592C76.4583 34 75.6933 34.204 74.832 34.204ZM74.764 32.929C75.376 32.929 75.92 32.776 76.396 32.47C76.8833 32.164 77.263 31.7503 77.535 31.229C77.8183 30.6963 77.96 30.1013 77.96 29.444C77.96 28.7753 77.8183 28.1803 77.535 27.659C77.263 27.1377 76.8833 26.724 76.396 26.418C75.92 26.112 75.376 25.959 74.764 25.959C74.152 25.959 73.5967 26.112 73.098 26.418C72.6107 26.724 72.2197 27.1433 71.925 27.676C71.6417 28.1973 71.5 28.7867 71.5 29.444C71.5 30.1013 71.6417 30.6963 71.925 31.229C72.2197 31.7503 72.6107 32.164 73.098 32.47C73.5967 32.776 74.152 32.929 74.764 32.929ZM81.5639 34V24.888H82.8389V26.384L82.6689 26.163C82.8842 25.7323 83.2072 25.3923 83.6379 25.143C84.0799 24.8937 84.6125 24.769 85.2359 24.769H85.8139V26.044H85.0149C84.3575 26.044 83.8305 26.248 83.4339 26.656C83.0372 27.064 82.8389 27.642 82.8389 28.39V34H81.5639ZM89.943 34.204C89.365 34.204 88.8494 34.0963 88.396 33.881C87.9427 33.6543 87.5857 33.3483 87.325 32.963C87.0644 32.5777 86.934 32.1357 86.934 31.637C86.934 31.161 87.036 30.7303 87.24 30.345C87.444 29.9483 87.7614 29.614 88.192 29.342C88.6227 29.07 89.1724 28.8773 89.841 28.764L93.411 28.169V29.325L90.147 29.869C89.4897 29.9823 89.0137 30.192 88.719 30.498C88.4357 30.804 88.294 31.1667 88.294 31.586C88.294 31.994 88.4527 32.3397 88.77 32.623C89.0987 32.9063 89.518 33.048 90.028 33.048C90.6514 33.048 91.1954 32.9177 91.66 32.657C92.1247 32.385 92.4874 32.0223 92.748 31.569C93.0087 31.1157 93.139 30.6113 93.139 30.056V27.744C93.139 27.2 92.9407 26.758 92.544 26.418C92.1474 26.078 91.6317 25.908 90.997 25.908C90.4417 25.908 89.9544 26.0497 89.535 26.333C89.1157 26.605 88.804 26.962 88.6 27.404L87.444 26.775C87.614 26.3897 87.8804 26.0383 88.243 25.721C88.617 25.4037 89.042 25.1543 89.518 24.973C89.994 24.7803 90.487 24.684 90.997 24.684C91.6657 24.684 92.255 24.8143 92.765 25.075C93.2864 25.3357 93.6887 25.6983 93.972 26.163C94.2667 26.6163 94.414 27.1433 94.414 27.744V34H93.139V32.181L93.326 32.368C93.1674 32.708 92.918 33.0197 92.578 33.303C92.2494 33.575 91.8584 33.796 91.405 33.966C90.963 34.1247 90.4757 34.204 89.943 34.204ZM97.0365 34V24.888H98.3115V26.384L98.1415 26.163C98.3569 25.7323 98.6799 25.3923 99.1105 25.143C99.5525 24.8937 100.085 24.769 100.709 24.769H101.287V26.044H100.488C99.8302 26.044 99.3032 26.248 98.9065 26.656C98.5099 27.064 98.3115 27.642 98.3115 28.39V34H97.0365ZM102.968 37.74C102.786 37.74 102.599 37.723 102.407 37.689C102.225 37.6663 102.044 37.621 101.863 37.553V36.363C101.976 36.3743 102.118 36.3913 102.288 36.414C102.469 36.448 102.65 36.465 102.832 36.465C103.387 36.465 103.812 36.346 104.107 36.108C104.401 35.8813 104.69 35.4393 104.974 34.782L105.552 33.422L105.518 34.544L101.659 24.888H103.036L106.198 32.861H105.841L108.986 24.888H110.397L106.232 35.156C106.05 35.598 105.818 36.0173 105.535 36.414C105.263 36.8107 104.917 37.128 104.498 37.366C104.078 37.6153 103.568 37.74 102.968 37.74ZM114.971 34V21.335H119.323C120.15 21.335 120.875 21.4993 121.499 21.828C122.122 22.1453 122.604 22.5987 122.944 23.188C123.295 23.766 123.471 24.4403 123.471 25.211C123.471 26.1063 123.233 26.8713 122.757 27.506C122.292 28.1407 121.657 28.5883 120.853 28.849L123.811 34H122.213L119.119 28.543L120.037 29.07H116.331V34H114.971ZM116.331 27.795H119.391C119.935 27.795 120.411 27.693 120.819 27.489C121.227 27.2737 121.544 26.9733 121.771 26.588C121.997 26.1913 122.111 25.7267 122.111 25.194C122.111 24.6613 121.997 24.2023 121.771 23.817C121.544 23.4317 121.227 23.137 120.819 22.933C120.411 22.7177 119.935 22.61 119.391 22.61H116.331V27.795ZM129.308 34.204C128.458 34.204 127.687 34 126.996 33.592C126.316 33.1727 125.777 32.6003 125.381 31.875C124.984 31.1497 124.786 30.328 124.786 29.41C124.786 28.492 124.978 27.6817 125.364 26.979C125.749 26.265 126.27 25.704 126.928 25.296C127.596 24.888 128.344 24.684 129.172 24.684C129.829 24.684 130.413 24.8087 130.923 25.058C131.444 25.296 131.886 25.6247 132.249 26.044C132.611 26.452 132.889 26.9167 133.082 27.438C133.274 27.948 133.371 28.475 133.371 29.019C133.371 29.1323 133.365 29.2627 133.354 29.41C133.342 29.546 133.325 29.6877 133.303 29.835H125.602V28.645H132.572L131.96 29.155C132.062 28.5317 131.988 27.9763 131.739 27.489C131.501 26.9903 131.155 26.5993 130.702 26.316C130.248 26.0213 129.738 25.874 129.172 25.874C128.605 25.874 128.078 26.0213 127.591 26.316C127.115 26.6107 126.741 27.0243 126.469 27.557C126.197 28.0783 126.089 28.7017 126.146 29.427C126.089 30.1523 126.202 30.787 126.486 31.331C126.78 31.8637 127.177 32.2773 127.676 32.572C128.186 32.8667 128.73 33.014 129.308 33.014C129.976 33.014 130.537 32.8553 130.991 32.538C131.444 32.2207 131.812 31.824 132.096 31.348L133.184 31.926C133.002 32.334 132.725 32.7137 132.351 33.065C131.977 33.405 131.529 33.6827 131.008 33.898C130.498 34.102 129.931 34.204 129.308 34.204ZM138.781 34.204C137.908 34.204 137.143 33.983 136.486 33.541C135.828 33.099 135.352 32.4983 135.058 31.739L136.129 31.229C136.389 31.7843 136.752 32.2263 137.217 32.555C137.693 32.8837 138.214 33.048 138.781 33.048C139.325 33.048 139.784 32.9177 140.158 32.657C140.532 32.385 140.719 32.0337 140.719 31.603C140.719 31.2857 140.628 31.0363 140.447 30.855C140.265 30.6623 140.056 30.515 139.818 30.413C139.58 30.311 139.37 30.2373 139.189 30.192L137.88 29.818C137.041 29.58 136.435 29.2457 136.061 28.815C135.687 28.3843 135.5 27.8857 135.5 27.319C135.5 26.7863 135.636 26.3217 135.908 25.925C136.18 25.5283 136.548 25.2223 137.013 25.007C137.477 24.7917 137.993 24.684 138.56 24.684C139.33 24.684 140.027 24.888 140.651 25.296C141.285 25.6927 141.733 26.248 141.994 26.962L140.906 27.472C140.679 26.962 140.35 26.5653 139.92 26.282C139.5 25.9873 139.03 25.84 138.509 25.84C137.999 25.84 137.591 25.9703 137.285 26.231C136.979 26.4917 136.826 26.8203 136.826 27.217C136.826 27.523 136.905 27.7667 137.064 27.948C137.222 28.1293 137.404 28.2653 137.608 28.356C137.823 28.4467 138.01 28.5147 138.169 28.56L139.682 29.002C140.418 29.2173 140.991 29.5517 141.399 30.005C141.818 30.4583 142.028 30.991 142.028 31.603C142.028 32.1017 141.886 32.5493 141.603 32.946C141.331 33.3427 140.951 33.6543 140.464 33.881C139.976 34.0963 139.415 34.204 138.781 34.204ZM148.416 34.204C147.566 34.204 146.795 34 146.104 33.592C145.424 33.1727 144.886 32.6003 144.489 31.875C144.092 31.1497 143.894 30.328 143.894 29.41C143.894 28.492 144.087 27.6817 144.472 26.979C144.857 26.265 145.379 25.704 146.036 25.296C146.705 24.888 147.453 24.684 148.28 24.684C148.937 24.684 149.521 24.8087 150.031 25.058C150.552 25.296 150.994 25.6247 151.357 26.044C151.72 26.452 151.997 26.9167 152.19 27.438C152.383 27.948 152.479 28.475 152.479 29.019C152.479 29.1323 152.473 29.2627 152.462 29.41C152.451 29.546 152.434 29.6877 152.411 29.835H144.71V28.645H151.68L151.068 29.155C151.17 28.5317 151.096 27.9763 150.847 27.489C150.609 26.9903 150.263 26.5993 149.81 26.316C149.357 26.0213 148.847 25.874 148.28 25.874C147.713 25.874 147.186 26.0213 146.699 26.316C146.223 26.6107 145.849 27.0243 145.577 27.557C145.305 28.0783 145.197 28.7017 145.254 29.427C145.197 30.1523 145.311 30.787 145.594 31.331C145.889 31.8637 146.285 32.2773 146.784 32.572C147.294 32.8667 147.838 33.014 148.416 33.014C149.085 33.014 149.646 32.8553 150.099 32.538C150.552 32.2207 150.921 31.824 151.204 31.348L152.292 31.926C152.111 32.334 151.833 32.7137 151.459 33.065C151.085 33.405 150.637 33.6827 150.116 33.898C149.606 34.102 149.039 34.204 148.416 34.204ZM157.196 34.204C156.618 34.204 156.102 34.0963 155.649 33.881C155.196 33.6543 154.839 33.3483 154.578 32.963C154.317 32.5777 154.187 32.1357 154.187 31.637C154.187 31.161 154.289 30.7303 154.493 30.345C154.697 29.9483 155.014 29.614 155.445 29.342C155.876 29.07 156.425 28.8773 157.094 28.764L160.664 28.169V29.325L157.4 29.869C156.743 29.9823 156.267 30.192 155.972 30.498C155.689 30.804 155.547 31.1667 155.547 31.586C155.547 31.994 155.706 32.3397 156.023 32.623C156.352 32.9063 156.771 33.048 157.281 33.048C157.904 33.048 158.448 32.9177 158.913 32.657C159.378 32.385 159.74 32.0223 160.001 31.569C160.262 31.1157 160.392 30.6113 160.392 30.056V27.744C160.392 27.2 160.194 26.758 159.797 26.418C159.4 26.078 158.885 25.908 158.25 25.908C157.695 25.908 157.207 26.0497 156.788 26.333C156.369 26.605 156.057 26.962 155.853 27.404L154.697 26.775C154.867 26.3897 155.133 26.0383 155.496 25.721C155.87 25.4037 156.295 25.1543 156.771 24.973C157.247 24.7803 157.74 24.684 158.25 24.684C158.919 24.684 159.508 24.8143 160.018 25.075C160.539 25.3357 160.942 25.6983 161.225 26.163C161.52 26.6163 161.667 27.1433 161.667 27.744V34H160.392V32.181L160.579 32.368C160.42 32.708 160.171 33.0197 159.831 33.303C159.502 33.575 159.111 33.796 158.658 33.966C158.216 34.1247 157.729 34.204 157.196 34.204ZM164.289 34V24.888H165.564V26.384L165.394 26.163C165.61 25.7323 165.933 25.3923 166.363 25.143C166.805 24.8937 167.338 24.769 167.961 24.769H168.539V26.044H167.74C167.083 26.044 166.556 26.248 166.159 26.656C165.763 27.064 165.564 27.642 165.564 28.39V34H164.289ZM174.199 34.204C173.303 34.204 172.516 33.9943 171.836 33.575C171.156 33.1557 170.623 32.589 170.238 31.875C169.852 31.1497 169.66 30.3337 169.66 29.427C169.66 28.5203 169.852 27.71 170.238 26.996C170.623 26.282 171.156 25.721 171.836 25.313C172.516 24.8937 173.303 24.684 174.199 24.684C174.765 24.684 175.298 24.786 175.797 24.99C176.295 25.194 176.737 25.4717 177.123 25.823C177.508 26.163 177.797 26.5597 177.99 27.013L176.834 27.608C176.607 27.1207 176.261 26.724 175.797 26.418C175.332 26.112 174.799 25.959 174.199 25.959C173.598 25.959 173.054 26.112 172.567 26.418C172.091 26.7127 171.711 27.1263 171.428 27.659C171.156 28.1803 171.02 28.7753 171.02 29.444C171.02 30.1013 171.156 30.6963 171.428 31.229C171.711 31.7503 172.091 32.164 172.567 32.47C173.054 32.776 173.598 32.929 174.199 32.929C174.799 32.929 175.326 32.776 175.78 32.47C176.244 32.164 176.596 31.756 176.834 31.246L177.99 31.875C177.797 32.317 177.508 32.7137 177.123 33.065C176.737 33.4163 176.295 33.694 175.797 33.898C175.298 34.102 174.765 34.204 174.199 34.204ZM180.227 34V21.131H181.502V26.656L181.213 26.588C181.44 25.9987 181.808 25.534 182.318 25.194C182.839 24.854 183.44 24.684 184.12 24.684C184.766 24.684 185.344 24.8313 185.854 25.126C186.375 25.4207 186.783 25.8287 187.078 26.35C187.384 26.86 187.537 27.438 187.537 28.084V34H186.262V28.577C186.262 28.0217 186.16 27.5513 185.956 27.166C185.752 26.7807 185.469 26.486 185.106 26.282C184.755 26.0667 184.352 25.959 183.899 25.959C183.446 25.959 183.038 26.0667 182.675 26.282C182.312 26.486 182.023 26.7863 181.808 27.183C181.604 27.5683 181.502 28.033 181.502 28.577V34H180.227Z" fill="#E4DAD7" fill-opacity="0.5"/>
<path d="M56 28.526H188.659V29.206H56V28.526Z" fill="#E4DAD7" fill-opacity="0.5"/>
<path d="M57.496 61V48.335H65.656V49.61H58.856V54.013H65.316V55.288H58.856V59.725H65.656V61H57.496ZM71.8832 61.204C70.9878 61.204 70.2002 60.9943 69.5202 60.575C68.8402 60.1557 68.3075 59.589 67.9222 58.875C67.5368 58.1497 67.3442 57.3337 67.3442 56.427C67.3442 55.5203 67.5368 54.71 67.9222 53.996C68.3075 53.282 68.8402 52.721 69.5202 52.313C70.2002 51.8937 70.9878 51.684 71.8832 51.684C72.4498 51.684 72.9825 51.786 73.4812 51.99C73.9798 52.194 74.4218 52.4717 74.8072 52.823C75.1925 53.163 75.4815 53.5597 75.6742 54.013L74.5182 54.608C74.2915 54.1207 73.9458 53.724 73.4812 53.418C73.0165 53.112 72.4838 52.959 71.8832 52.959C71.2825 52.959 70.7385 53.112 70.2512 53.418C69.7752 53.7127 69.3955 54.1263 69.1122 54.659C68.8402 55.1803 68.7042 55.7753 68.7042 56.444C68.7042 57.1013 68.8402 57.6963 69.1122 58.229C69.3955 58.7503 69.7752 59.164 70.2512 59.47C70.7385 59.776 71.2825 59.929 71.8832 59.929C72.4838 59.929 73.0108 59.776 73.4642 59.47C73.9288 59.164 74.2802 58.756 74.5182 58.246L75.6742 58.875C75.4815 59.317 75.1925 59.7137 74.8072 60.065C74.4218 60.4163 73.9798 60.694 73.4812 60.898C72.9825 61.102 72.4498 61.204 71.8832 61.204ZM82.1785 61.204C81.3172 61.204 80.5352 61 79.8325 60.592C79.1299 60.1727 78.5689 59.606 78.1495 58.892C77.7415 58.1667 77.5375 57.345 77.5375 56.427C77.5375 55.5203 77.7415 54.71 78.1495 53.996C78.5575 53.282 79.1072 52.721 79.7985 52.313C80.5012 51.8937 81.2945 51.684 82.1785 51.684C83.0625 51.684 83.8502 51.888 84.5415 52.296C85.2442 52.704 85.7939 53.265 86.1905 53.979C86.5985 54.693 86.8025 55.509 86.8025 56.427C86.8025 57.3563 86.5929 58.1837 86.1735 58.909C85.7542 59.623 85.1932 60.184 84.4905 60.592C83.7992 61 83.0285 61.204 82.1785 61.204ZM82.1785 59.929C82.7905 59.929 83.3402 59.776 83.8275 59.47C84.3262 59.164 84.7172 58.7447 85.0005 58.212C85.2952 57.6793 85.4425 57.0843 85.4425 56.427C85.4425 55.7697 85.2952 55.1803 85.0005 54.659C84.7172 54.1377 84.3262 53.724 83.8275 53.418C83.3402 53.112 82.7905 52.959 82.1785 52.959C81.5665 52.959 81.0112 53.112 80.5125 53.418C80.0252 53.724 79.6342 54.1377 79.3395 54.659C79.0449 55.1803 78.8975 55.7697 78.8975 56.427C78.8975 57.0843 79.0449 57.6793 79.3395 58.212C79.6342 58.7447 80.0252 59.164 80.5125 59.47C81.0112 59.776 81.5665 59.929 82.1785 59.929ZM89.0512 61V51.888H90.3262V53.656L90.0372 53.588C90.2639 52.9987 90.6322 52.534 91.1422 52.194C91.6635 51.854 92.2642 51.684 92.9442 51.684C93.5902 51.684 94.1682 51.8313 94.6782 52.126C95.1995 52.4207 95.6075 52.8287 95.9022 53.35C96.2082 53.86 96.3612 54.438 96.3612 55.084V61H95.0862V55.577C95.0862 55.0217 94.9842 54.5513 94.7802 54.166C94.5875 53.7807 94.3099 53.486 93.9472 53.282C93.5959 53.0667 93.1879 52.959 92.7232 52.959C92.2585 52.959 91.8449 53.0667 91.4822 53.282C91.1195 53.486 90.8362 53.7863 90.6322 54.183C90.4282 54.5683 90.3262 55.033 90.3262 55.577V61H89.0512ZM103.063 61.204C102.202 61.204 101.42 61 100.717 60.592C100.015 60.1727 99.4536 59.606 99.0343 58.892C98.6263 58.1667 98.4223 57.345 98.4223 56.427C98.4223 55.5203 98.6263 54.71 99.0343 53.996C99.4423 53.282 99.992 52.721 100.683 52.313C101.386 51.8937 102.179 51.684 103.063 51.684C103.947 51.684 104.735 51.888 105.426 52.296C106.129 52.704 106.679 53.265 107.075 53.979C107.483 54.693 107.687 55.509 107.687 56.427C107.687 57.3563 107.478 58.1837 107.058 58.909C106.639 59.623 106.078 60.184 105.375 60.592C104.684 61 103.913 61.204 103.063 61.204ZM103.063 59.929C103.675 59.929 104.225 59.776 104.712 59.47C105.211 59.164 105.602 58.7447 105.885 58.212C106.18 57.6793 106.327 57.0843 106.327 56.427C106.327 55.7697 106.18 55.1803 105.885 54.659C105.602 54.1377 105.211 53.724 104.712 53.418C104.225 53.112 103.675 52.959 103.063 52.959C102.451 52.959 101.896 53.112 101.397 53.418C100.91 53.724 100.519 54.1377 100.224 54.659C99.9296 55.1803 99.7823 55.7697 99.7823 56.427C99.7823 57.0843 99.9296 57.6793 100.224 58.212C100.519 58.7447 100.91 59.164 101.397 59.47C101.896 59.776 102.451 59.929 103.063 59.929ZM109.936 61V51.888H111.211V53.622L111.007 53.367C111.256 52.8343 111.625 52.4207 112.112 52.126C112.611 51.8313 113.155 51.684 113.744 51.684C114.447 51.684 115.081 51.8823 115.648 52.279C116.215 52.6757 116.617 53.1913 116.855 53.826L116.498 53.843C116.725 53.1403 117.116 52.6077 117.671 52.245C118.238 51.871 118.861 51.684 119.541 51.684C120.153 51.684 120.714 51.8313 121.224 52.126C121.745 52.4207 122.159 52.8287 122.465 53.35C122.782 53.86 122.941 54.438 122.941 55.084V61H121.666V55.577C121.666 55.0217 121.564 54.5513 121.36 54.166C121.167 53.7807 120.901 53.486 120.561 53.282C120.221 53.0667 119.83 52.959 119.388 52.959C118.957 52.959 118.566 53.0667 118.215 53.282C117.864 53.486 117.586 53.7863 117.382 54.183C117.178 54.5683 117.076 55.033 117.076 55.577V61H115.801V55.577C115.801 55.0217 115.699 54.5513 115.495 54.166C115.302 53.7807 115.036 53.486 114.696 53.282C114.356 53.0667 113.965 52.959 113.523 52.959C113.081 52.959 112.684 53.0667 112.333 53.282C111.993 53.486 111.721 53.7863 111.517 54.183C111.313 54.5683 111.211 55.033 111.211 55.577V61H109.936ZM125.375 61V51.888H126.65V61H125.375ZM125.375 50.205V48.335H126.65V50.205H125.375ZM133.425 61.204C132.53 61.204 131.742 60.9943 131.062 60.575C130.382 60.1557 129.85 59.589 129.464 58.875C129.079 58.1497 128.886 57.3337 128.886 56.427C128.886 55.5203 129.079 54.71 129.464 53.996C129.85 53.282 130.382 52.721 131.062 52.313C131.742 51.8937 132.53 51.684 133.425 51.684C133.992 51.684 134.525 51.786 135.023 51.99C135.522 52.194 135.964 52.4717 136.349 52.823C136.735 53.163 137.024 53.5597 137.216 54.013L136.06 54.608C135.834 54.1207 135.488 53.724 135.023 53.418C134.559 53.112 134.026 52.959 133.425 52.959C132.825 52.959 132.281 53.112 131.793 53.418C131.317 53.7127 130.938 54.1263 130.654 54.659C130.382 55.1803 130.246 55.7753 130.246 56.444C130.246 57.1013 130.382 57.6963 130.654 58.229C130.938 58.7503 131.317 59.164 131.793 59.47C132.281 59.776 132.825 59.929 133.425 59.929C134.026 59.929 134.553 59.776 135.006 59.47C135.471 59.164 135.822 58.756 136.06 58.246L137.216 58.875C137.024 59.317 136.735 59.7137 136.349 60.065C135.964 60.4163 135.522 60.694 135.023 60.898C134.525 61.102 133.992 61.204 133.425 61.204ZM142.616 61.204C141.743 61.204 140.978 60.983 140.321 60.541C139.663 60.099 139.187 59.4983 138.893 58.739L139.964 58.229C140.224 58.7843 140.587 59.2263 141.052 59.555C141.528 59.8837 142.049 60.048 142.616 60.048C143.16 60.048 143.619 59.9177 143.993 59.657C144.367 59.385 144.554 59.0337 144.554 58.603C144.554 58.2857 144.463 58.0363 144.282 57.855C144.1 57.6623 143.891 57.515 143.653 57.413C143.415 57.311 143.205 57.2373 143.024 57.192L141.715 56.818C140.876 56.58 140.27 56.2457 139.896 55.815C139.522 55.3843 139.335 54.8857 139.335 54.319C139.335 53.7863 139.471 53.3217 139.743 52.925C140.015 52.5283 140.383 52.2223 140.848 52.007C141.312 51.7917 141.828 51.684 142.395 51.684C143.165 51.684 143.862 51.888 144.486 52.296C145.12 52.6927 145.568 53.248 145.829 53.962L144.741 54.472C144.514 53.962 144.185 53.5653 143.755 53.282C143.335 52.9873 142.865 52.84 142.344 52.84C141.834 52.84 141.426 52.9703 141.12 53.231C140.814 53.4917 140.661 53.8203 140.661 54.217C140.661 54.523 140.74 54.7667 140.899 54.948C141.057 55.1293 141.239 55.2653 141.443 55.356C141.658 55.4467 141.845 55.5147 142.004 55.56L143.517 56.002C144.253 56.2173 144.826 56.5517 145.234 57.005C145.653 57.4583 145.863 57.991 145.863 58.603C145.863 59.1017 145.721 59.5493 145.438 59.946C145.166 60.3427 144.786 60.6543 144.299 60.881C143.811 61.0963 143.25 61.204 142.616 61.204Z" fill="#B69891" fill-opacity="0.5"/>
</svg>
