<svg width="1016" height="218" viewBox="0 0 1016 218" fill="none" xmlns="http://www.w3.org/2000/svg">
<rect width="1000" height="204" transform="translate(8 8)" fill="#0D0402"/>
<path fill-rule="evenodd" clip-rule="evenodd" d="M95.5 60.5H60.5V95.5H95.5V60.5ZM60.5 55.5C57.7386 55.5 55.5 57.7386 55.5 60.5V95.5C55.5 98.2614 57.7386 100.5 60.5 100.5H95.5C98.2614 100.5 100.5 98.2614 100.5 95.5V60.5C100.5 57.7386 98.2614 55.5 95.5 55.5H60.5Z" fill="#E4DAD7" fill-opacity="0.5"/>
<path d="M162.408 94.51C160.396 94.51 158.568 94.1275 156.925 93.3625C155.282 92.5975 153.893 91.5775 152.76 90.3025C151.627 88.9992 150.819 87.5683 150.338 86.01L153.398 84.8625C154.134 87.0158 155.282 88.6592 156.84 89.7925C158.398 90.8975 160.254 91.45 162.408 91.45C163.768 91.45 164.958 91.2375 165.978 90.8125C167.026 90.3592 167.833 89.7358 168.4 88.9425C168.967 88.1492 169.25 87.2283 169.25 86.18C169.25 84.6217 168.825 83.4175 167.975 82.5675C167.125 81.7175 165.907 81.0658 164.32 80.6125L158.625 78.9125C156.387 78.2608 154.658 77.17 153.44 75.64C152.25 74.11 151.655 72.3675 151.655 70.4125C151.655 68.7408 152.066 67.2675 152.888 65.9925C153.709 64.6892 154.828 63.6692 156.245 62.9325C157.69 62.1958 159.319 61.8275 161.133 61.8275C163.031 61.8275 164.731 62.1817 166.233 62.89C167.763 63.57 169.052 64.4767 170.1 65.61C171.148 66.7433 171.899 68.0042 172.353 69.3925L169.378 70.5825C168.698 68.7125 167.635 67.2958 166.19 66.3325C164.773 65.3692 163.102 64.8875 161.175 64.8875C159.957 64.8875 158.88 65.1 157.945 65.525C157.038 65.95 156.33 66.5592 155.82 67.3525C155.31 68.1458 155.055 69.0808 155.055 70.1575C155.055 71.4608 155.466 72.6367 156.288 73.685C157.109 74.705 158.37 75.47 160.07 75.98L165.085 77.4675C167.578 78.2042 169.463 79.2667 170.738 80.655C172.013 82.0433 172.65 83.7858 172.65 85.8825C172.65 87.5825 172.211 89.0842 171.333 90.3875C170.483 91.6625 169.278 92.6683 167.72 93.405C166.19 94.1417 164.419 94.51 162.408 94.51ZM186.823 94.51C185.236 94.51 183.791 94.1417 182.488 93.405C181.185 92.64 180.151 91.5917 179.386 90.26C178.649 88.9 178.281 87.3417 178.281 85.585V71.22H181.468V85.2025C181.468 86.4208 181.709 87.4975 182.191 88.4325C182.701 89.3392 183.395 90.0475 184.273 90.5575C185.18 91.0675 186.214 91.3225 187.376 91.3225C188.537 91.3225 189.571 91.0675 190.478 90.5575C191.385 90.0192 192.093 89.2683 192.603 88.305C193.113 87.3133 193.368 86.1375 193.368 84.7775V71.22H196.556V94H193.368V89.58L194.091 89.75C193.552 91.2233 192.631 92.385 191.328 93.235C190.025 94.085 188.523 94.51 186.823 94.51ZM214.628 94.51C212.673 94.51 210.903 94.0708 209.316 93.1925C207.758 92.2858 206.582 91.0108 205.788 89.3675L206.298 88.9V94H203.111V61.8275H206.298V76.32L205.788 75.4275C206.695 73.9825 207.899 72.835 209.401 71.985C210.931 71.135 212.673 70.71 214.628 70.71C216.782 70.71 218.694 71.2342 220.366 72.2825C222.066 73.3025 223.398 74.705 224.361 76.49C225.353 78.275 225.848 80.315 225.848 82.61C225.848 84.8767 225.353 86.9167 224.361 88.73C223.398 90.515 222.066 91.9317 220.366 92.98C218.694 94 216.782 94.51 214.628 94.51ZM214.458 91.3225C215.988 91.3225 217.348 90.94 218.538 90.175C219.757 89.41 220.706 88.3758 221.386 87.0725C222.094 85.7408 222.448 84.2533 222.448 82.61C222.448 80.9383 222.094 79.4508 221.386 78.1475C220.706 76.8442 219.757 75.81 218.538 75.045C217.348 74.28 215.988 73.8975 214.458 73.8975C212.928 73.8975 211.54 74.28 210.293 75.045C209.075 75.81 208.098 76.8583 207.361 78.19C206.653 79.4933 206.298 80.9667 206.298 82.61C206.298 84.2533 206.653 85.7408 207.361 87.0725C208.098 88.3758 209.075 89.41 210.293 90.175C211.54 90.94 212.928 91.3225 214.458 91.3225ZM231.458 94V71.22H234.646V75.555L234.136 74.9175C234.759 73.5858 235.68 72.5517 236.898 71.815C238.145 71.0783 239.505 70.71 240.978 70.71C242.735 70.71 244.321 71.2058 245.738 72.1975C247.155 73.1892 248.161 74.4783 248.756 76.065L247.863 76.1075C248.43 74.3508 249.407 73.0192 250.796 72.1125C252.212 71.1775 253.771 70.71 255.471 70.71C257.001 70.71 258.403 71.0783 259.678 71.815C260.981 72.5517 262.016 73.5717 262.781 74.875C263.574 76.15 263.971 77.595 263.971 79.21V94H260.783V80.4425C260.783 79.0542 260.528 77.8783 260.018 76.915C259.536 75.9517 258.871 75.215 258.021 74.705C257.171 74.1667 256.193 73.8975 255.088 73.8975C254.011 73.8975 253.034 74.1667 252.156 74.705C251.277 75.215 250.583 75.9658 250.073 76.9575C249.563 77.9208 249.308 79.0825 249.308 80.4425V94H246.121V80.4425C246.121 79.0542 245.866 77.8783 245.356 76.915C244.874 75.9517 244.208 75.215 243.358 74.705C242.508 74.1667 241.531 73.8975 240.426 73.8975C239.321 73.8975 238.329 74.1667 237.451 74.705C236.601 75.215 235.921 75.9658 235.411 76.9575C234.901 77.9208 234.646 79.0825 234.646 80.4425V94H231.458ZM270.057 94V71.22H273.244V94H270.057ZM270.057 67.0125V62.3375H273.244V67.0125H270.057ZM288.481 94.255C286.441 94.255 284.869 93.66 283.764 92.47C282.659 91.28 282.106 89.58 282.106 87.37V74.4075H277.899V71.22H278.961C279.924 71.22 280.689 70.9083 281.256 70.285C281.823 69.6333 282.106 68.8258 282.106 67.8625V65.95H285.294V71.22H290.309V74.4075H285.294V87.37C285.294 88.135 285.407 88.815 285.634 89.41C285.86 89.9767 286.243 90.43 286.781 90.77C287.348 91.11 288.099 91.28 289.034 91.28C289.26 91.28 289.529 91.2658 289.841 91.2375C290.153 91.2092 290.422 91.1808 290.649 91.1525V94C290.309 94.085 289.926 94.1417 289.501 94.17C289.076 94.2267 288.736 94.255 288.481 94.255ZM300.662 94L312.222 62.3375H315.877L327.437 94H323.867L321.147 86.265H306.995L304.232 94H300.662ZM308.1 83.0775H319.957L313.54 64.8875H314.56L308.1 83.0775ZM339.097 94.51C336.915 94.51 335.003 93.9575 333.359 92.8525C331.716 91.7475 330.526 90.2458 329.789 88.3475L332.467 87.0725C333.119 88.4608 334.025 89.5658 335.187 90.3875C336.377 91.2092 337.68 91.62 339.097 91.62C340.457 91.62 341.604 91.2942 342.539 90.6425C343.474 89.9625 343.942 89.0842 343.942 88.0075C343.942 87.2142 343.715 86.5908 343.262 86.1375C342.809 85.6558 342.284 85.2875 341.689 85.0325C341.094 84.7775 340.57 84.5933 340.117 84.48L336.844 83.545C334.748 82.95 333.232 82.1142 332.297 81.0375C331.362 79.9608 330.894 78.7142 330.894 77.2975C330.894 75.9658 331.234 74.8042 331.914 73.8125C332.594 72.8208 333.515 72.0558 334.677 71.5175C335.839 70.9792 337.128 70.71 338.544 70.71C340.471 70.71 342.214 71.22 343.772 72.24C345.359 73.2317 346.478 74.62 347.129 76.405L344.409 77.68C343.843 76.405 343.021 75.4133 341.944 74.705C340.896 73.9683 339.72 73.6 338.417 73.6C337.142 73.6 336.122 73.9258 335.357 74.5775C334.592 75.2292 334.209 76.0508 334.209 77.0425C334.209 77.8075 334.408 78.4167 334.804 78.87C335.201 79.3233 335.654 79.6633 336.164 79.89C336.703 80.1167 337.17 80.2867 337.567 80.4L341.349 81.505C343.191 82.0433 344.622 82.8792 345.642 84.0125C346.69 85.1458 347.214 86.4775 347.214 88.0075C347.214 89.2542 346.86 90.3733 346.152 91.365C345.472 92.3567 344.523 93.1358 343.304 93.7025C342.086 94.2408 340.684 94.51 339.097 94.51ZM360.72 94.51C358.539 94.51 356.626 93.9575 354.983 92.8525C353.34 91.7475 352.15 90.2458 351.413 88.3475L354.09 87.0725C354.742 88.4608 355.649 89.5658 356.81 90.3875C358 91.2092 359.304 91.62 360.72 91.62C362.08 91.62 363.228 91.2942 364.163 90.6425C365.098 89.9625 365.565 89.0842 365.565 88.0075C365.565 87.2142 365.339 86.5908 364.885 86.1375C364.432 85.6558 363.908 85.2875 363.313 85.0325C362.718 84.7775 362.194 84.5933 361.74 84.48L358.468 83.545C356.371 82.95 354.855 82.1142 353.92 81.0375C352.985 79.9608 352.518 78.7142 352.518 77.2975C352.518 75.9658 352.858 74.8042 353.538 73.8125C354.218 72.8208 355.139 72.0558 356.3 71.5175C357.462 70.9792 358.751 70.71 360.168 70.71C362.095 70.71 363.837 71.22 365.395 72.24C366.982 73.2317 368.101 74.62 368.753 76.405L366.033 77.68C365.466 76.405 364.645 75.4133 363.568 74.705C362.52 73.9683 361.344 73.6 360.04 73.6C358.765 73.6 357.745 73.9258 356.98 74.5775C356.215 75.2292 355.833 76.0508 355.833 77.0425C355.833 77.8075 356.031 78.4167 356.428 78.87C356.825 79.3233 357.278 79.6633 357.788 79.89C358.326 80.1167 358.794 80.2867 359.19 80.4L362.973 81.505C364.815 82.0433 366.245 82.8792 367.265 84.0125C368.314 85.1458 368.838 86.4775 368.838 88.0075C368.838 89.2542 368.484 90.3733 367.775 91.365C367.095 92.3567 366.146 93.1358 364.928 93.7025C363.71 94.2408 362.307 94.51 360.72 94.51ZM374.439 94V71.22H377.627V94H374.439ZM374.439 67.0125V62.3375H377.627V67.0125H374.439ZM394.946 103.35C393.388 103.35 391.943 103.109 390.611 102.628C389.308 102.146 388.174 101.48 387.211 100.63C386.276 99.8083 385.553 98.845 385.043 97.74L387.976 96.1675C388.429 97.2442 389.237 98.1792 390.398 98.9725C391.56 99.7658 393.048 100.163 394.861 100.163C396.249 100.163 397.524 99.8933 398.686 99.355C399.848 98.8167 400.783 98.0233 401.491 96.975C402.199 95.9267 402.553 94.6375 402.553 93.1075V88.05L403.063 88.5175C402.27 90.1608 401.094 91.4358 399.536 92.3425C397.978 93.2208 396.278 93.66 394.436 93.66C392.311 93.66 390.398 93.15 388.698 92.13C386.998 91.11 385.653 89.7358 384.661 88.0075C383.698 86.2508 383.216 84.31 383.216 82.185C383.216 80.0317 383.698 78.0908 384.661 76.3625C385.653 74.6342 386.984 73.26 388.656 72.24C390.356 71.22 392.283 70.71 394.436 70.71C396.278 70.71 397.949 71.135 399.451 71.985C400.981 72.835 402.185 73.9825 403.063 75.4275L402.553 76.32V71.22H405.741V93.1075C405.741 95.0625 405.273 96.805 404.338 98.335C403.432 99.8933 402.157 101.112 400.513 101.99C398.898 102.897 397.043 103.35 394.946 103.35ZM394.606 90.4725C396.079 90.4725 397.411 90.1042 398.601 89.3675C399.791 88.6025 400.74 87.5967 401.448 86.35C402.185 85.075 402.553 83.6867 402.553 82.185C402.553 80.6833 402.185 79.3092 401.448 78.0625C400.74 76.7875 399.791 75.7817 398.601 75.045C397.411 74.28 396.079 73.8975 394.606 73.8975C393.104 73.8975 391.744 74.28 390.526 75.045C389.308 75.7817 388.344 76.7733 387.636 78.02C386.956 79.2667 386.616 80.655 386.616 82.185C386.616 83.6867 386.956 85.075 387.636 86.35C388.344 87.5967 389.293 88.6025 390.483 89.3675C391.702 90.1042 393.076 90.4725 394.606 90.4725ZM412.291 94V71.22H415.478V75.64L414.756 75.47C415.322 73.9967 416.243 72.835 417.518 71.985C418.821 71.135 420.323 70.71 422.023 70.71C423.638 70.71 425.083 71.0783 426.358 71.815C427.661 72.5517 428.681 73.5717 429.418 74.875C430.183 76.15 430.566 77.595 430.566 79.21V94H427.378V80.4425C427.378 79.0542 427.123 77.8783 426.613 76.915C426.131 75.9517 425.437 75.215 424.531 74.705C423.652 74.1667 422.632 73.8975 421.471 73.8975C420.309 73.8975 419.275 74.1667 418.368 74.705C417.461 75.215 416.753 75.9658 416.243 76.9575C415.733 77.9208 415.478 79.0825 415.478 80.4425V94H412.291ZM436.653 94V71.22H439.841V75.555L439.331 74.9175C439.954 73.5858 440.875 72.5517 442.093 71.815C443.34 71.0783 444.7 70.71 446.173 70.71C447.93 70.71 449.517 71.2058 450.933 72.1975C452.35 73.1892 453.356 74.4783 453.951 76.065L453.058 76.1075C453.625 74.3508 454.603 73.0192 455.991 72.1125C457.408 71.1775 458.966 70.71 460.666 70.71C462.196 70.71 463.598 71.0783 464.873 71.815C466.177 72.5517 467.211 73.5717 467.976 74.875C468.769 76.15 469.166 77.595 469.166 79.21V94H465.978V80.4425C465.978 79.0542 465.723 77.8783 465.213 76.915C464.732 75.9517 464.066 75.215 463.216 74.705C462.366 74.1667 461.388 73.8975 460.283 73.8975C459.207 73.8975 458.229 74.1667 457.351 74.705C456.473 75.215 455.778 75.9658 455.268 76.9575C454.758 77.9208 454.503 79.0825 454.503 80.4425V94H451.316V80.4425C451.316 79.0542 451.061 77.8783 450.551 76.915C450.069 75.9517 449.403 75.215 448.553 74.705C447.703 74.1667 446.726 73.8975 445.621 73.8975C444.516 73.8975 443.524 74.1667 442.646 74.705C441.796 75.215 441.116 75.9658 440.606 76.9575C440.096 77.9208 439.841 79.0825 439.841 80.4425V94H436.653ZM485.622 94.51C483.497 94.51 481.57 94 479.842 92.98C478.142 91.9317 476.796 90.5008 475.804 88.6875C474.813 86.8742 474.317 84.82 474.317 82.525C474.317 80.23 474.799 78.2042 475.762 76.4475C476.725 74.6625 478.029 73.26 479.672 72.24C481.344 71.22 483.214 70.71 485.282 70.71C486.925 70.71 488.384 71.0217 489.659 71.645C490.963 72.24 492.068 73.0617 492.974 74.11C493.881 75.13 494.575 76.2917 495.057 77.595C495.539 78.87 495.779 80.1875 495.779 81.5475C495.779 81.8308 495.765 82.1567 495.737 82.525C495.709 82.865 495.666 83.2192 495.609 83.5875H476.357V80.6125H493.782L492.252 81.8875C492.507 80.3292 492.323 78.9408 491.699 77.7225C491.104 76.4758 490.24 75.4983 489.107 74.79C487.974 74.0533 486.699 73.685 485.282 73.685C483.865 73.685 482.548 74.0533 481.329 74.79C480.139 75.5267 479.204 76.5608 478.524 77.8925C477.844 79.1958 477.575 80.7542 477.717 82.5675C477.575 84.3808 477.859 85.9675 478.567 87.3275C479.304 88.6592 480.295 89.6933 481.542 90.43C482.817 91.1667 484.177 91.535 485.622 91.535C487.294 91.535 488.696 91.1383 489.829 90.345C490.963 89.5517 491.884 88.56 492.592 87.37L495.312 88.815C494.859 89.835 494.164 90.7842 493.229 91.6625C492.294 92.5125 491.175 93.2067 489.872 93.745C488.597 94.255 487.18 94.51 485.622 94.51ZM501.399 94V71.22H504.587V75.64L503.864 75.47C504.431 73.9967 505.352 72.835 506.627 71.985C507.93 71.135 509.432 70.71 511.132 70.71C512.747 70.71 514.192 71.0783 515.467 71.815C516.77 72.5517 517.79 73.5717 518.527 74.875C519.292 76.15 519.674 77.595 519.674 79.21V94H516.487V80.4425C516.487 79.0542 516.232 77.8783 515.722 76.915C515.24 75.9517 514.546 75.215 513.639 74.705C512.761 74.1667 511.741 73.8975 510.579 73.8975C509.418 73.8975 508.384 74.1667 507.477 74.705C506.57 75.215 505.862 75.9658 505.352 76.9575C504.842 77.9208 504.587 79.0825 504.587 80.4425V94H501.399ZM534.475 94.255C532.435 94.255 530.862 93.66 529.757 92.47C528.652 91.28 528.1 89.58 528.1 87.37V74.4075H523.892V71.22H524.955C525.918 71.22 526.683 70.9083 527.25 70.285C527.816 69.6333 528.1 68.8258 528.1 67.8625V65.95H531.287V71.22H536.302V74.4075H531.287V87.37C531.287 88.135 531.401 88.815 531.627 89.41C531.854 89.9767 532.236 90.43 532.775 90.77C533.341 91.11 534.092 91.28 535.027 91.28C535.254 91.28 535.523 91.2658 535.835 91.2375C536.146 91.2092 536.416 91.1808 536.642 91.1525V94C536.302 94.085 535.92 94.1417 535.495 94.17C535.07 94.2267 534.73 94.255 534.475 94.255Z" fill="#E4DAD7"/>
<path d="M151.74 161V129.337H162.153C165.298 129.337 168.032 129.989 170.355 131.292C172.678 132.567 174.478 134.395 175.753 136.775C177.028 139.127 177.665 141.917 177.665 145.147C177.665 148.349 177.028 151.14 175.753 153.52C174.478 155.9 172.678 157.742 170.355 159.045C168.032 160.348 165.298 161 162.153 161H151.74ZM155.14 157.812H162.153C164.589 157.812 166.7 157.302 168.485 156.282C170.27 155.234 171.644 153.761 172.608 151.862C173.599 149.964 174.095 147.726 174.095 145.147C174.095 142.569 173.599 140.345 172.608 138.475C171.616 136.577 170.228 135.117 168.443 134.097C166.658 133.049 164.561 132.525 162.153 132.525H155.14V157.812ZM190.89 161.51C189.304 161.51 187.859 161.142 186.555 160.405C185.252 159.64 184.218 158.592 183.453 157.26C182.716 155.9 182.348 154.342 182.348 152.585V138.22H185.535V152.202C185.535 153.421 185.776 154.497 186.258 155.432C186.768 156.339 187.462 157.047 188.34 157.557C189.247 158.067 190.281 158.322 191.443 158.322C192.605 158.322 193.639 158.067 194.545 157.557C195.452 157.019 196.16 156.268 196.67 155.305C197.18 154.313 197.435 153.137 197.435 151.777V138.22H200.623V161H197.435V156.58L198.158 156.75C197.62 158.223 196.699 159.385 195.395 160.235C194.092 161.085 192.59 161.51 190.89 161.51ZM217.548 161.51C215.423 161.51 213.497 161 211.768 159.98C210.068 158.932 208.722 157.501 207.731 155.688C206.739 153.874 206.243 151.82 206.243 149.525C206.243 147.23 206.725 145.204 207.688 143.447C208.652 141.662 209.955 140.26 211.598 139.24C213.27 138.22 215.14 137.71 217.208 137.71C218.852 137.71 220.311 138.022 221.586 138.645C222.889 139.24 223.994 140.062 224.901 141.11C225.807 142.13 226.502 143.292 226.983 144.595C227.465 145.87 227.706 147.187 227.706 148.547C227.706 148.831 227.692 149.157 227.663 149.525C227.635 149.865 227.592 150.219 227.536 150.587H208.283V147.612H225.708L224.178 148.887C224.433 147.329 224.249 145.941 223.626 144.722C223.031 143.476 222.167 142.498 221.033 141.79C219.9 141.053 218.625 140.685 217.208 140.685C215.792 140.685 214.474 141.053 213.256 141.79C212.066 142.527 211.131 143.561 210.451 144.892C209.771 146.196 209.502 147.754 209.643 149.567C209.502 151.381 209.785 152.967 210.493 154.327C211.23 155.659 212.222 156.693 213.468 157.43C214.743 158.167 216.103 158.535 217.548 158.535C219.22 158.535 220.622 158.138 221.756 157.345C222.889 156.552 223.81 155.56 224.518 154.37L227.238 155.815C226.785 156.835 226.091 157.784 225.156 158.662C224.221 159.512 223.102 160.207 221.798 160.745C220.523 161.255 219.107 161.51 217.548 161.51ZM234.431 161V156.325H237.831V161H234.431ZM234.431 142.895V138.22H237.831V142.895H234.431ZM268.093 161.51C265.883 161.51 263.815 161.113 261.888 160.32C259.99 159.498 258.318 158.365 256.873 156.92C255.428 155.447 254.295 153.718 253.473 151.735C252.651 149.723 252.241 147.527 252.241 145.147C252.241 142.767 252.651 140.586 253.473 138.602C254.295 136.591 255.428 134.862 256.873 133.417C258.318 131.944 259.99 130.811 261.888 130.017C263.815 129.224 265.883 128.827 268.093 128.827C270.303 128.827 272.357 129.238 274.256 130.06C276.182 130.853 277.868 131.987 279.313 133.46C280.758 134.905 281.891 136.619 282.713 138.602C283.535 140.586 283.946 142.767 283.946 145.147C283.946 147.527 283.535 149.723 282.713 151.735C281.891 153.718 280.758 155.447 279.313 156.92C277.868 158.365 276.182 159.498 274.256 160.32C272.357 161.113 270.303 161.51 268.093 161.51ZM268.093 158.322C269.935 158.322 271.606 157.982 273.108 157.302C274.638 156.622 275.956 155.673 277.061 154.455C278.166 153.237 279.016 151.834 279.611 150.247C280.234 148.661 280.546 146.961 280.546 145.147C280.546 143.362 280.234 141.677 279.611 140.09C279.016 138.503 278.166 137.101 277.061 135.882C275.956 134.664 274.638 133.715 273.108 133.035C271.606 132.355 269.935 132.015 268.093 132.015C266.251 132.015 264.566 132.355 263.036 133.035C261.534 133.715 260.231 134.664 259.126 135.882C258.021 137.101 257.156 138.503 256.533 140.09C255.938 141.677 255.641 143.362 255.641 145.147C255.641 146.961 255.938 148.661 256.533 150.247C257.156 151.834 258.021 153.237 259.126 154.455C260.231 155.673 261.548 156.622 263.078 157.302C264.608 157.982 266.28 158.322 268.093 158.322ZM300.433 161.51C298.194 161.51 296.225 160.986 294.525 159.937C292.825 158.889 291.493 157.472 290.53 155.688C289.567 153.874 289.085 151.834 289.085 149.567C289.085 147.301 289.567 145.275 290.53 143.49C291.493 141.705 292.825 140.302 294.525 139.282C296.225 138.234 298.194 137.71 300.433 137.71C301.849 137.71 303.181 137.965 304.428 138.475C305.674 138.985 306.779 139.679 307.743 140.557C308.706 141.407 309.428 142.399 309.91 143.532L307.02 145.02C306.453 143.802 305.589 142.81 304.428 142.045C303.266 141.28 301.934 140.897 300.433 140.897C298.931 140.897 297.571 141.28 296.353 142.045C295.163 142.782 294.213 143.816 293.505 145.147C292.825 146.451 292.485 147.938 292.485 149.61C292.485 151.253 292.825 152.741 293.505 154.072C294.213 155.376 295.163 156.41 296.353 157.175C297.571 157.94 298.931 158.322 300.433 158.322C301.934 158.322 303.252 157.94 304.385 157.175C305.547 156.41 306.425 155.39 307.02 154.115L309.91 155.688C309.428 156.792 308.706 157.784 307.743 158.662C306.779 159.541 305.674 160.235 304.428 160.745C303.181 161.255 301.849 161.51 300.433 161.51ZM324.216 161.255C322.176 161.255 320.603 160.66 319.498 159.47C318.393 158.28 317.841 156.58 317.841 154.37V141.407H313.633V138.22H314.696C315.659 138.22 316.424 137.908 316.991 137.285C317.558 136.633 317.841 135.826 317.841 134.862V132.95H321.028V138.22H326.043V141.407H321.028V154.37C321.028 155.135 321.142 155.815 321.368 156.41C321.595 156.977 321.978 157.43 322.516 157.77C323.083 158.11 323.833 158.28 324.768 158.28C324.995 158.28 325.264 158.266 325.576 158.237C325.888 158.209 326.157 158.181 326.383 158.152V161C326.043 161.085 325.661 161.142 325.236 161.17C324.811 161.227 324.471 161.255 324.216 161.255ZM338.395 161V158.875L347.235 149.142C348.963 147.244 350.366 145.672 351.442 144.425C352.547 143.178 353.369 142.045 353.907 141.025C354.446 140.005 354.715 138.9 354.715 137.71C354.715 135.812 354.162 134.352 353.057 133.332C351.952 132.312 350.479 131.802 348.637 131.802C346.739 131.802 345.138 132.341 343.835 133.417C342.56 134.494 341.696 135.996 341.242 137.922L338.14 137.242C338.508 135.514 339.174 134.027 340.137 132.78C341.101 131.533 342.305 130.57 343.75 129.89C345.195 129.182 346.81 128.827 348.595 128.827C350.493 128.827 352.151 129.21 353.567 129.975C354.984 130.74 356.089 131.788 356.882 133.12C357.704 134.452 358.115 135.982 358.115 137.71C358.115 138.9 357.86 140.047 357.35 141.152C356.868 142.257 356.131 143.447 355.14 144.722C354.148 145.997 352.873 147.485 351.315 149.185L343.282 158.025H358.965V161H338.395ZM377.011 161.51C374.517 161.51 372.321 160.83 370.423 159.47C368.553 158.082 367.094 156.169 366.046 153.732C364.997 151.267 364.473 148.406 364.473 145.147C364.473 141.889 364.997 139.042 366.046 136.605C367.094 134.14 368.553 132.227 370.423 130.867C372.293 129.507 374.475 128.827 376.968 128.827C379.461 128.827 381.643 129.507 383.513 130.867C385.383 132.227 386.842 134.14 387.891 136.605C388.939 139.042 389.463 141.889 389.463 145.147C389.463 148.406 388.939 151.267 387.891 153.732C386.871 156.197 385.426 158.11 383.556 159.47C381.686 160.83 379.504 161.51 377.011 161.51ZM377.011 158.322C378.824 158.322 380.411 157.77 381.771 156.665C383.131 155.56 384.193 154.03 384.958 152.075C385.723 150.092 386.106 147.782 386.106 145.147C386.106 142.512 385.723 140.217 384.958 138.262C384.193 136.279 383.131 134.749 381.771 133.672C380.411 132.567 378.81 132.015 376.968 132.015C375.155 132.015 373.568 132.567 372.208 133.672C370.848 134.749 369.786 136.279 369.021 138.262C368.256 140.217 367.873 142.512 367.873 145.147C367.873 147.754 368.256 150.049 369.021 152.032C369.786 154.016 370.848 155.56 372.208 156.665C373.596 157.77 375.197 158.322 377.011 158.322Z" fill="#E4DAD7" fill-opacity="0.5"/>
<rect x="148" y="210.75" width="859.5" height="1.25" fill="#B69891" fill-opacity="0.5"/>
<rect x="150" y="10" width="856" height="199" fill="#87D67E" fill-opacity="0.1" stroke="#87D67E" stroke-width="4"/>
<rect x="4" y="4" width="1008" height="210" stroke="#1273F2" stroke-width="8"/>
<rect x="10" y="10" width="136" height="199" fill="#D67EC3" fill-opacity="0.1" stroke="#D67EC3" stroke-width="4"/>
</svg>
