<svg width="1000" height="208" viewBox="0 0 1000 208" fill="none" xmlns="http://www.w3.org/2000/svg">
<rect width="1000" height="204" fill="#0D0402"/>
<path fill-rule="evenodd" clip-rule="evenodd" d="M87.5 52.5H52.5V87.5H87.5V52.5ZM52.5 47.5C49.7386 47.5 47.5 49.7386 47.5 52.5V87.5C47.5 90.2614 49.7386 92.5 52.5 92.5H87.5C90.2614 92.5 92.5 90.2614 92.5 87.5V52.5C92.5 49.7386 90.2614 47.5 87.5 47.5H52.5Z" fill="#E4DAD7" fill-opacity="0.5"/>
<path d="M154.408 86.51C152.396 86.51 150.568 86.1275 148.925 85.3625C147.282 84.5975 145.893 83.5775 144.76 82.3025C143.627 80.9992 142.819 79.5683 142.338 78.01L145.398 76.8625C146.134 79.0158 147.282 80.6592 148.84 81.7925C150.398 82.8975 152.254 83.45 154.408 83.45C155.768 83.45 156.958 83.2375 157.978 82.8125C159.026 82.3592 159.833 81.7358 160.4 80.9425C160.967 80.1492 161.25 79.2283 161.25 78.18C161.25 76.6217 160.825 75.4175 159.975 74.5675C159.125 73.7175 157.907 73.0658 156.32 72.6125L150.625 70.9125C148.387 70.2608 146.658 69.17 145.44 67.64C144.25 66.11 143.655 64.3675 143.655 62.4125C143.655 60.7408 144.066 59.2675 144.888 57.9925C145.709 56.6892 146.828 55.6692 148.245 54.9325C149.69 54.1958 151.319 53.8275 153.133 53.8275C155.031 53.8275 156.731 54.1817 158.233 54.89C159.763 55.57 161.052 56.4767 162.1 57.61C163.148 58.7433 163.899 60.0042 164.353 61.3925L161.378 62.5825C160.698 60.7125 159.635 59.2958 158.19 58.3325C156.773 57.3692 155.102 56.8875 153.175 56.8875C151.957 56.8875 150.88 57.1 149.945 57.525C149.038 57.95 148.33 58.5592 147.82 59.3525C147.31 60.1458 147.055 61.0808 147.055 62.1575C147.055 63.4608 147.466 64.6367 148.288 65.685C149.109 66.705 150.37 67.47 152.07 67.98L157.085 69.4675C159.578 70.2042 161.463 71.2667 162.738 72.655C164.013 74.0433 164.65 75.7858 164.65 77.8825C164.65 79.5825 164.211 81.0842 163.333 82.3875C162.483 83.6625 161.278 84.6683 159.72 85.405C158.19 86.1417 156.419 86.51 154.408 86.51ZM178.823 86.51C177.236 86.51 175.791 86.1417 174.488 85.405C173.185 84.64 172.151 83.5917 171.386 82.26C170.649 80.9 170.281 79.3417 170.281 77.585V63.22H173.468V77.2025C173.468 78.4208 173.709 79.4975 174.191 80.4325C174.701 81.3392 175.395 82.0475 176.273 82.5575C177.18 83.0675 178.214 83.3225 179.376 83.3225C180.537 83.3225 181.571 83.0675 182.478 82.5575C183.385 82.0192 184.093 81.2683 184.603 80.305C185.113 79.3133 185.368 78.1375 185.368 76.7775V63.22H188.556V86H185.368V81.58L186.091 81.75C185.552 83.2233 184.631 84.385 183.328 85.235C182.025 86.085 180.523 86.51 178.823 86.51ZM206.628 86.51C204.673 86.51 202.903 86.0708 201.316 85.1925C199.758 84.2858 198.582 83.0108 197.788 81.3675L198.298 80.9V86H195.111V53.8275H198.298V68.32L197.788 67.4275C198.695 65.9825 199.899 64.835 201.401 63.985C202.931 63.135 204.673 62.71 206.628 62.71C208.782 62.71 210.694 63.2342 212.366 64.2825C214.066 65.3025 215.398 66.705 216.361 68.49C217.353 70.275 217.848 72.315 217.848 74.61C217.848 76.8767 217.353 78.9167 216.361 80.73C215.398 82.515 214.066 83.9317 212.366 84.98C210.694 86 208.782 86.51 206.628 86.51ZM206.458 83.3225C207.988 83.3225 209.348 82.94 210.538 82.175C211.757 81.41 212.706 80.3758 213.386 79.0725C214.094 77.7408 214.448 76.2533 214.448 74.61C214.448 72.9383 214.094 71.4508 213.386 70.1475C212.706 68.8442 211.757 67.81 210.538 67.045C209.348 66.28 207.988 65.8975 206.458 65.8975C204.928 65.8975 203.54 66.28 202.293 67.045C201.075 67.81 200.098 68.8583 199.361 70.19C198.653 71.4933 198.298 72.9667 198.298 74.61C198.298 76.2533 198.653 77.7408 199.361 79.0725C200.098 80.3758 201.075 81.41 202.293 82.175C203.54 82.94 204.928 83.3225 206.458 83.3225ZM223.458 86V63.22H226.646V67.555L226.136 66.9175C226.759 65.5858 227.68 64.5517 228.898 63.815C230.145 63.0783 231.505 62.71 232.978 62.71C234.735 62.71 236.321 63.2058 237.738 64.1975C239.155 65.1892 240.161 66.4783 240.756 68.065L239.863 68.1075C240.43 66.3508 241.407 65.0192 242.796 64.1125C244.212 63.1775 245.771 62.71 247.471 62.71C249.001 62.71 250.403 63.0783 251.678 63.815C252.981 64.5517 254.016 65.5717 254.781 66.875C255.574 68.15 255.971 69.595 255.971 71.21V86H252.783V72.4425C252.783 71.0542 252.528 69.8783 252.018 68.915C251.536 67.9517 250.871 67.215 250.021 66.705C249.171 66.1667 248.193 65.8975 247.088 65.8975C246.011 65.8975 245.034 66.1667 244.156 66.705C243.277 67.215 242.583 67.9658 242.073 68.9575C241.563 69.9208 241.308 71.0825 241.308 72.4425V86H238.121V72.4425C238.121 71.0542 237.866 69.8783 237.356 68.915C236.874 67.9517 236.208 67.215 235.358 66.705C234.508 66.1667 233.531 65.8975 232.426 65.8975C231.321 65.8975 230.329 66.1667 229.451 66.705C228.601 67.215 227.921 67.9658 227.411 68.9575C226.901 69.9208 226.646 71.0825 226.646 72.4425V86H223.458ZM262.057 86V63.22H265.244V86H262.057ZM262.057 59.0125V54.3375H265.244V59.0125H262.057ZM280.481 86.255C278.441 86.255 276.869 85.66 275.764 84.47C274.659 83.28 274.106 81.58 274.106 79.37V66.4075H269.899V63.22H270.961C271.924 63.22 272.689 62.9083 273.256 62.285C273.823 61.6333 274.106 60.8258 274.106 59.8625V57.95H277.294V63.22H282.309V66.4075H277.294V79.37C277.294 80.135 277.407 80.815 277.634 81.41C277.86 81.9767 278.243 82.43 278.781 82.77C279.348 83.11 280.099 83.28 281.034 83.28C281.26 83.28 281.529 83.2658 281.841 83.2375C282.153 83.2092 282.422 83.1808 282.649 83.1525V86C282.309 86.085 281.926 86.1417 281.501 86.17C281.076 86.2267 280.736 86.255 280.481 86.255ZM292.662 86L304.222 54.3375H307.877L319.437 86H315.867L313.147 78.265H298.995L296.232 86H292.662ZM300.1 75.0775H311.957L305.54 56.8875H306.56L300.1 75.0775ZM331.097 86.51C328.915 86.51 327.003 85.9575 325.359 84.8525C323.716 83.7475 322.526 82.2458 321.789 80.3475L324.467 79.0725C325.119 80.4608 326.025 81.5658 327.187 82.3875C328.377 83.2092 329.68 83.62 331.097 83.62C332.457 83.62 333.604 83.2942 334.539 82.6425C335.474 81.9625 335.942 81.0842 335.942 80.0075C335.942 79.2142 335.715 78.5908 335.262 78.1375C334.809 77.6558 334.284 77.2875 333.689 77.0325C333.094 76.7775 332.57 76.5933 332.117 76.48L328.844 75.545C326.748 74.95 325.232 74.1142 324.297 73.0375C323.362 71.9608 322.894 70.7142 322.894 69.2975C322.894 67.9658 323.234 66.8042 323.914 65.8125C324.594 64.8208 325.515 64.0558 326.677 63.5175C327.839 62.9792 329.128 62.71 330.544 62.71C332.471 62.71 334.214 63.22 335.772 64.24C337.359 65.2317 338.478 66.62 339.129 68.405L336.409 69.68C335.843 68.405 335.021 67.4133 333.944 66.705C332.896 65.9683 331.72 65.6 330.417 65.6C329.142 65.6 328.122 65.9258 327.357 66.5775C326.592 67.2292 326.209 68.0508 326.209 69.0425C326.209 69.8075 326.408 70.4167 326.804 70.87C327.201 71.3233 327.654 71.6633 328.164 71.89C328.703 72.1167 329.17 72.2867 329.567 72.4L333.349 73.505C335.191 74.0433 336.622 74.8792 337.642 76.0125C338.69 77.1458 339.214 78.4775 339.214 80.0075C339.214 81.2542 338.86 82.3733 338.152 83.365C337.472 84.3567 336.523 85.1358 335.304 85.7025C334.086 86.2408 332.684 86.51 331.097 86.51ZM352.72 86.51C350.539 86.51 348.626 85.9575 346.983 84.8525C345.34 83.7475 344.15 82.2458 343.413 80.3475L346.09 79.0725C346.742 80.4608 347.649 81.5658 348.81 82.3875C350 83.2092 351.304 83.62 352.72 83.62C354.08 83.62 355.228 83.2942 356.163 82.6425C357.098 81.9625 357.565 81.0842 357.565 80.0075C357.565 79.2142 357.339 78.5908 356.885 78.1375C356.432 77.6558 355.908 77.2875 355.313 77.0325C354.718 76.7775 354.194 76.5933 353.74 76.48L350.468 75.545C348.371 74.95 346.855 74.1142 345.92 73.0375C344.985 71.9608 344.518 70.7142 344.518 69.2975C344.518 67.9658 344.858 66.8042 345.538 65.8125C346.218 64.8208 347.139 64.0558 348.3 63.5175C349.462 62.9792 350.751 62.71 352.168 62.71C354.095 62.71 355.837 63.22 357.395 64.24C358.982 65.2317 360.101 66.62 360.753 68.405L358.033 69.68C357.466 68.405 356.645 67.4133 355.568 66.705C354.52 65.9683 353.344 65.6 352.04 65.6C350.765 65.6 349.745 65.9258 348.98 66.5775C348.215 67.2292 347.833 68.0508 347.833 69.0425C347.833 69.8075 348.031 70.4167 348.428 70.87C348.825 71.3233 349.278 71.6633 349.788 71.89C350.326 72.1167 350.794 72.2867 351.19 72.4L354.973 73.505C356.815 74.0433 358.245 74.8792 359.265 76.0125C360.314 77.1458 360.838 78.4775 360.838 80.0075C360.838 81.2542 360.484 82.3733 359.775 83.365C359.095 84.3567 358.146 85.1358 356.928 85.7025C355.71 86.2408 354.307 86.51 352.72 86.51ZM366.439 86V63.22H369.627V86H366.439ZM366.439 59.0125V54.3375H369.627V59.0125H366.439ZM386.946 95.35C385.388 95.35 383.943 95.1092 382.611 94.6275C381.308 94.1458 380.174 93.48 379.211 92.63C378.276 91.8083 377.553 90.845 377.043 89.74L379.976 88.1675C380.429 89.2442 381.237 90.1792 382.398 90.9725C383.56 91.7658 385.048 92.1625 386.861 92.1625C388.249 92.1625 389.524 91.8933 390.686 91.355C391.848 90.8167 392.783 90.0233 393.491 88.975C394.199 87.9267 394.553 86.6375 394.553 85.1075V80.05L395.063 80.5175C394.27 82.1608 393.094 83.4358 391.536 84.3425C389.978 85.2208 388.278 85.66 386.436 85.66C384.311 85.66 382.398 85.15 380.698 84.13C378.998 83.11 377.653 81.7358 376.661 80.0075C375.698 78.2508 375.216 76.31 375.216 74.185C375.216 72.0317 375.698 70.0908 376.661 68.3625C377.653 66.6342 378.984 65.26 380.656 64.24C382.356 63.22 384.283 62.71 386.436 62.71C388.278 62.71 389.949 63.135 391.451 63.985C392.981 64.835 394.185 65.9825 395.063 67.4275L394.553 68.32V63.22H397.741V85.1075C397.741 87.0625 397.273 88.805 396.338 90.335C395.432 91.8933 394.157 93.1117 392.513 93.99C390.898 94.8967 389.043 95.35 386.946 95.35ZM386.606 82.4725C388.079 82.4725 389.411 82.1042 390.601 81.3675C391.791 80.6025 392.74 79.5967 393.448 78.35C394.185 77.075 394.553 75.6867 394.553 74.185C394.553 72.6833 394.185 71.3092 393.448 70.0625C392.74 68.7875 391.791 67.7817 390.601 67.045C389.411 66.28 388.079 65.8975 386.606 65.8975C385.104 65.8975 383.744 66.28 382.526 67.045C381.308 67.7817 380.344 68.7733 379.636 70.02C378.956 71.2667 378.616 72.655 378.616 74.185C378.616 75.6867 378.956 77.075 379.636 78.35C380.344 79.5967 381.293 80.6025 382.483 81.3675C383.702 82.1042 385.076 82.4725 386.606 82.4725ZM404.291 86V63.22H407.478V67.64L406.756 67.47C407.322 65.9967 408.243 64.835 409.518 63.985C410.821 63.135 412.323 62.71 414.023 62.71C415.638 62.71 417.083 63.0783 418.358 63.815C419.661 64.5517 420.681 65.5717 421.418 66.875C422.183 68.15 422.566 69.595 422.566 71.21V86H419.378V72.4425C419.378 71.0542 419.123 69.8783 418.613 68.915C418.131 67.9517 417.437 67.215 416.531 66.705C415.652 66.1667 414.632 65.8975 413.471 65.8975C412.309 65.8975 411.275 66.1667 410.368 66.705C409.461 67.215 408.753 67.9658 408.243 68.9575C407.733 69.9208 407.478 71.0825 407.478 72.4425V86H404.291ZM428.653 86V63.22H431.841V67.555L431.331 66.9175C431.954 65.5858 432.875 64.5517 434.093 63.815C435.34 63.0783 436.7 62.71 438.173 62.71C439.93 62.71 441.517 63.2058 442.933 64.1975C444.35 65.1892 445.356 66.4783 445.951 68.065L445.058 68.1075C445.625 66.3508 446.603 65.0192 447.991 64.1125C449.408 63.1775 450.966 62.71 452.666 62.71C454.196 62.71 455.598 63.0783 456.873 63.815C458.177 64.5517 459.211 65.5717 459.976 66.875C460.769 68.15 461.166 69.595 461.166 71.21V86H457.978V72.4425C457.978 71.0542 457.723 69.8783 457.213 68.915C456.732 67.9517 456.066 67.215 455.216 66.705C454.366 66.1667 453.388 65.8975 452.283 65.8975C451.207 65.8975 450.229 66.1667 449.351 66.705C448.473 67.215 447.778 67.9658 447.268 68.9575C446.758 69.9208 446.503 71.0825 446.503 72.4425V86H443.316V72.4425C443.316 71.0542 443.061 69.8783 442.551 68.915C442.069 67.9517 441.403 67.215 440.553 66.705C439.703 66.1667 438.726 65.8975 437.621 65.8975C436.516 65.8975 435.524 66.1667 434.646 66.705C433.796 67.215 433.116 67.9658 432.606 68.9575C432.096 69.9208 431.841 71.0825 431.841 72.4425V86H428.653ZM477.622 86.51C475.497 86.51 473.57 86 471.842 84.98C470.142 83.9317 468.796 82.5008 467.804 80.6875C466.813 78.8742 466.317 76.82 466.317 74.525C466.317 72.23 466.799 70.2042 467.762 68.4475C468.725 66.6625 470.029 65.26 471.672 64.24C473.344 63.22 475.214 62.71 477.282 62.71C478.925 62.71 480.384 63.0217 481.659 63.645C482.963 64.24 484.068 65.0617 484.974 66.11C485.881 67.13 486.575 68.2917 487.057 69.595C487.539 70.87 487.779 72.1875 487.779 73.5475C487.779 73.8308 487.765 74.1567 487.737 74.525C487.709 74.865 487.666 75.2192 487.609 75.5875H468.357V72.6125H485.782L484.252 73.8875C484.507 72.3292 484.323 70.9408 483.699 69.7225C483.104 68.4758 482.24 67.4983 481.107 66.79C479.974 66.0533 478.699 65.685 477.282 65.685C475.865 65.685 474.548 66.0533 473.329 66.79C472.139 67.5267 471.204 68.5608 470.524 69.8925C469.844 71.1958 469.575 72.7542 469.717 74.5675C469.575 76.3808 469.859 77.9675 470.567 79.3275C471.304 80.6592 472.295 81.6933 473.542 82.43C474.817 83.1667 476.177 83.535 477.622 83.535C479.294 83.535 480.696 83.1383 481.829 82.345C482.963 81.5517 483.884 80.56 484.592 79.37L487.312 80.815C486.859 81.835 486.164 82.7842 485.229 83.6625C484.294 84.5125 483.175 85.2067 481.872 85.745C480.597 86.255 479.18 86.51 477.622 86.51ZM493.399 86V63.22H496.587V67.64L495.864 67.47C496.431 65.9967 497.352 64.835 498.627 63.985C499.93 63.135 501.432 62.71 503.132 62.71C504.747 62.71 506.192 63.0783 507.467 63.815C508.77 64.5517 509.79 65.5717 510.527 66.875C511.292 68.15 511.674 69.595 511.674 71.21V86H508.487V72.4425C508.487 71.0542 508.232 69.8783 507.722 68.915C507.24 67.9517 506.546 67.215 505.639 66.705C504.761 66.1667 503.741 65.8975 502.579 65.8975C501.418 65.8975 500.384 66.1667 499.477 66.705C498.57 67.215 497.862 67.9658 497.352 68.9575C496.842 69.9208 496.587 71.0825 496.587 72.4425V86H493.399ZM526.475 86.255C524.435 86.255 522.862 85.66 521.757 84.47C520.652 83.28 520.1 81.58 520.1 79.37V66.4075H515.892V63.22H516.955C517.918 63.22 518.683 62.9083 519.25 62.285C519.816 61.6333 520.1 60.8258 520.1 59.8625V57.95H523.287V63.22H528.302V66.4075H523.287V79.37C523.287 80.135 523.401 80.815 523.627 81.41C523.854 81.9767 524.236 82.43 524.775 82.77C525.341 83.11 526.092 83.28 527.027 83.28C527.254 83.28 527.523 83.2658 527.835 83.2375C528.146 83.2092 528.416 83.1808 528.642 83.1525V86C528.302 86.085 527.92 86.1417 527.495 86.17C527.07 86.2267 526.73 86.255 526.475 86.255Z" fill="#E4DAD7"/>
<path d="M143.74 153V121.337H154.153C157.298 121.337 160.032 121.989 162.355 123.292C164.678 124.567 166.478 126.395 167.753 128.775C169.028 131.127 169.665 133.917 169.665 137.147C169.665 140.349 169.028 143.14 167.753 145.52C166.478 147.9 164.678 149.742 162.355 151.045C160.032 152.348 157.298 153 154.153 153H143.74ZM147.14 149.812H154.153C156.589 149.812 158.7 149.302 160.485 148.282C162.27 147.234 163.644 145.761 164.608 143.862C165.599 141.964 166.095 139.726 166.095 137.147C166.095 134.569 165.599 132.345 164.608 130.475C163.616 128.577 162.228 127.117 160.443 126.097C158.658 125.049 156.561 124.525 154.153 124.525H147.14V149.812ZM182.89 153.51C181.304 153.51 179.859 153.142 178.555 152.405C177.252 151.64 176.218 150.592 175.453 149.26C174.716 147.9 174.348 146.342 174.348 144.585V130.22H177.535V144.202C177.535 145.421 177.776 146.497 178.258 147.432C178.768 148.339 179.462 149.047 180.34 149.557C181.247 150.067 182.281 150.322 183.443 150.322C184.605 150.322 185.639 150.067 186.545 149.557C187.452 149.019 188.16 148.268 188.67 147.305C189.18 146.313 189.435 145.137 189.435 143.777V130.22H192.623V153H189.435V148.58L190.158 148.75C189.62 150.223 188.699 151.385 187.395 152.235C186.092 153.085 184.59 153.51 182.89 153.51ZM209.548 153.51C207.423 153.51 205.497 153 203.768 151.98C202.068 150.932 200.722 149.501 199.731 147.688C198.739 145.874 198.243 143.82 198.243 141.525C198.243 139.23 198.725 137.204 199.688 135.447C200.652 133.662 201.955 132.26 203.598 131.24C205.27 130.22 207.14 129.71 209.208 129.71C210.852 129.71 212.311 130.022 213.586 130.645C214.889 131.24 215.994 132.062 216.901 133.11C217.807 134.13 218.502 135.292 218.983 136.595C219.465 137.87 219.706 139.187 219.706 140.547C219.706 140.831 219.692 141.157 219.663 141.525C219.635 141.865 219.592 142.219 219.536 142.587H200.283V139.612H217.708L216.178 140.887C216.433 139.329 216.249 137.941 215.626 136.722C215.031 135.476 214.167 134.498 213.033 133.79C211.9 133.053 210.625 132.685 209.208 132.685C207.792 132.685 206.474 133.053 205.256 133.79C204.066 134.527 203.131 135.561 202.451 136.892C201.771 138.196 201.502 139.754 201.643 141.567C201.502 143.381 201.785 144.967 202.493 146.327C203.23 147.659 204.222 148.693 205.468 149.43C206.743 150.167 208.103 150.535 209.548 150.535C211.22 150.535 212.622 150.138 213.756 149.345C214.889 148.552 215.81 147.56 216.518 146.37L219.238 147.815C218.785 148.835 218.091 149.784 217.156 150.662C216.221 151.512 215.102 152.207 213.798 152.745C212.523 153.255 211.107 153.51 209.548 153.51ZM226.431 153V148.325H229.831V153H226.431ZM226.431 134.895V130.22H229.831V134.895H226.431ZM260.093 153.51C257.883 153.51 255.815 153.113 253.888 152.32C251.99 151.498 250.318 150.365 248.873 148.92C247.428 147.447 246.295 145.718 245.473 143.735C244.651 141.723 244.241 139.527 244.241 137.147C244.241 134.767 244.651 132.586 245.473 130.602C246.295 128.591 247.428 126.862 248.873 125.417C250.318 123.944 251.99 122.811 253.888 122.017C255.815 121.224 257.883 120.827 260.093 120.827C262.303 120.827 264.357 121.238 266.256 122.06C268.182 122.853 269.868 123.987 271.313 125.46C272.758 126.905 273.891 128.619 274.713 130.602C275.535 132.586 275.946 134.767 275.946 137.147C275.946 139.527 275.535 141.723 274.713 143.735C273.891 145.718 272.758 147.447 271.313 148.92C269.868 150.365 268.182 151.498 266.256 152.32C264.357 153.113 262.303 153.51 260.093 153.51ZM260.093 150.322C261.935 150.322 263.606 149.982 265.108 149.302C266.638 148.622 267.956 147.673 269.061 146.455C270.166 145.237 271.016 143.834 271.611 142.247C272.234 140.661 272.546 138.961 272.546 137.147C272.546 135.362 272.234 133.677 271.611 132.09C271.016 130.503 270.166 129.101 269.061 127.882C267.956 126.664 266.638 125.715 265.108 125.035C263.606 124.355 261.935 124.015 260.093 124.015C258.251 124.015 256.566 124.355 255.036 125.035C253.534 125.715 252.231 126.664 251.126 127.882C250.021 129.101 249.156 130.503 248.533 132.09C247.938 133.677 247.641 135.362 247.641 137.147C247.641 138.961 247.938 140.661 248.533 142.247C249.156 143.834 250.021 145.237 251.126 146.455C252.231 147.673 253.548 148.622 255.078 149.302C256.608 149.982 258.28 150.322 260.093 150.322ZM292.433 153.51C290.194 153.51 288.225 152.986 286.525 151.937C284.825 150.889 283.493 149.472 282.53 147.688C281.567 145.874 281.085 143.834 281.085 141.567C281.085 139.301 281.567 137.275 282.53 135.49C283.493 133.705 284.825 132.302 286.525 131.282C288.225 130.234 290.194 129.71 292.433 129.71C293.849 129.71 295.181 129.965 296.428 130.475C297.674 130.985 298.779 131.679 299.743 132.557C300.706 133.407 301.428 134.399 301.91 135.532L299.02 137.02C298.453 135.802 297.589 134.81 296.428 134.045C295.266 133.28 293.934 132.897 292.433 132.897C290.931 132.897 289.571 133.28 288.353 134.045C287.163 134.782 286.213 135.816 285.505 137.147C284.825 138.451 284.485 139.938 284.485 141.61C284.485 143.253 284.825 144.741 285.505 146.072C286.213 147.376 287.163 148.41 288.353 149.175C289.571 149.94 290.931 150.322 292.433 150.322C293.934 150.322 295.252 149.94 296.385 149.175C297.547 148.41 298.425 147.39 299.02 146.115L301.91 147.688C301.428 148.792 300.706 149.784 299.743 150.662C298.779 151.541 297.674 152.235 296.428 152.745C295.181 153.255 293.849 153.51 292.433 153.51ZM316.216 153.255C314.176 153.255 312.603 152.66 311.498 151.47C310.393 150.28 309.841 148.58 309.841 146.37V133.407H305.633V130.22H306.696C307.659 130.22 308.424 129.908 308.991 129.285C309.558 128.633 309.841 127.826 309.841 126.862V124.95H313.028V130.22H318.043V133.407H313.028V146.37C313.028 147.135 313.142 147.815 313.368 148.41C313.595 148.977 313.978 149.43 314.516 149.77C315.083 150.11 315.833 150.28 316.768 150.28C316.995 150.28 317.264 150.266 317.576 150.237C317.888 150.209 318.157 150.181 318.383 150.152V153C318.043 153.085 317.661 153.142 317.236 153.17C316.811 153.227 316.471 153.255 316.216 153.255ZM330.395 153V150.875L339.235 141.142C340.963 139.244 342.366 137.672 343.442 136.425C344.547 135.178 345.369 134.045 345.907 133.025C346.446 132.005 346.715 130.9 346.715 129.71C346.715 127.812 346.162 126.352 345.057 125.332C343.952 124.312 342.479 123.802 340.637 123.802C338.739 123.802 337.138 124.341 335.835 125.417C334.56 126.494 333.696 127.996 333.242 129.922L330.14 129.242C330.508 127.514 331.174 126.027 332.137 124.78C333.101 123.533 334.305 122.57 335.75 121.89C337.195 121.182 338.81 120.827 340.595 120.827C342.493 120.827 344.151 121.21 345.567 121.975C346.984 122.74 348.089 123.788 348.882 125.12C349.704 126.452 350.115 127.982 350.115 129.71C350.115 130.9 349.86 132.047 349.35 133.152C348.868 134.257 348.131 135.447 347.14 136.722C346.148 137.997 344.873 139.485 343.315 141.185L335.282 150.025H350.965V153H330.395ZM369.011 153.51C366.517 153.51 364.321 152.83 362.423 151.47C360.553 150.082 359.094 148.169 358.046 145.732C356.997 143.267 356.473 140.406 356.473 137.147C356.473 133.889 356.997 131.042 358.046 128.605C359.094 126.14 360.553 124.227 362.423 122.867C364.293 121.507 366.475 120.827 368.968 120.827C371.461 120.827 373.643 121.507 375.513 122.867C377.383 124.227 378.842 126.14 379.891 128.605C380.939 131.042 381.463 133.889 381.463 137.147C381.463 140.406 380.939 143.267 379.891 145.732C378.871 148.197 377.426 150.11 375.556 151.47C373.686 152.83 371.504 153.51 369.011 153.51ZM369.011 150.322C370.824 150.322 372.411 149.77 373.771 148.665C375.131 147.56 376.193 146.03 376.958 144.075C377.723 142.092 378.106 139.782 378.106 137.147C378.106 134.512 377.723 132.217 376.958 130.262C376.193 128.279 375.131 126.749 373.771 125.672C372.411 124.567 370.81 124.015 368.968 124.015C367.155 124.015 365.568 124.567 364.208 125.672C362.848 126.749 361.786 128.279 361.021 130.262C360.256 132.217 359.873 134.512 359.873 137.147C359.873 139.754 360.256 142.049 361.021 144.032C361.786 146.016 362.848 147.56 364.208 148.665C365.596 149.77 367.197 150.322 369.011 150.322Z" fill="#E4DAD7" fill-opacity="0.5"/>
<rect x="140" y="202.75" width="819.5" height="1.25" fill="#B69891" fill-opacity="0.5"/>
</svg>
