<?xml version="1.0" encoding="UTF-8"?>
<svg id="Layer_1" data-name="Layer 1" xmlns="http://www.w3.org/2000/svg" viewBox="0 0 120 65">
  <defs>
    <style>
      .cls-1 {
        fill: #262626;
        stroke-width: 0px;
      }
    </style>
  </defs>
  <g>
    <path class="cls-1" d="M34.03,54.83c-.46-.54-1.2-.74-1.86-.5-1.52.55-3.4.55-4.92,0-.66-.24-1.4-.04-1.86.51-1.84-1.18-3.16-3.06-3.66-5.24l1.1-.57,1.12.39c.15.05.31.02.43-.09.12-.11.17-.27.14-.42-.03-.16-.14-.29-.29-.33l-.88-.3.29-.91c.05-.15.02-.32-.08-.44-.1-.12-.26-.18-.41-.14-.15.03-.28.15-.32.3l-.37,1.16-.88.45c-.04-.34-.06-.68-.06-1.02,0-4.66,3.68-8.45,8.2-8.45,2.91,0,5.47,1.58,6.92,3.94l-.91.47-1.12-.39c-.22-.08-.47.05-.54.28s.04.48.27.56l.88.3-.29.91c-.07.23.05.48.27.56.22.08.47-.05.55-.28l.38-1.16.95-.49c.56,1.16.85,2.44.85,3.73,0,2.92-1.47,5.63-3.88,7.17M38.77,47.66c0-5.15-4.07-9.34-9.07-9.34s-9.07,4.19-9.07,9.34c0,3.26,1.66,6.28,4.36,7.97-.03.12-.04.25-.04.38,0,0,0,2.37,0,3.16.02,1.81,2.56,1.84,2.59.05v-.39c0-.65.85-.65.86-.05.02.88,0,2.63,0,3.5,0,1.81,2.56,1.84,2.59.05.02-.99,0-2.96,0-3.95,0-.65.85-.65.86-.05,0,.43,0,1.29,0,1.73,0,1.81,2.56,1.84,2.59.05.02-1.03,0-4.1,0-4.1,0-.13-.02-.25-.04-.37,2.7-1.69,4.36-4.71,4.36-7.97M29.71,51.22c-1.91,0-3.45-1.59-3.45-3.56s1.55-3.56,3.45-3.56,3.45,1.59,3.45,3.56c0,1.96-1.55,3.55-3.45,3.56M29.71,43.21c-2.38,0-4.32,1.99-4.32,4.45s1.93,4.45,4.32,4.45,4.32-1.99,4.32-4.45c0-2.45-1.93-4.44-4.32-4.45M36.61,47.21c-.24,0-.43.2-.43.44,0,.82-.14,1.63-.43,2.39-.08.23.03.48.25.57.22.09.47-.02.56-.25.32-.87.49-1.78.49-2.71,0-.25-.19-.44-.43-.44"/>
    <path class="cls-1" d="M34.45,63.67c0,.74-.58,1.33-1.29,1.33s-1.3-.6-1.3-1.33.58-1.33,1.3-1.33,1.29.6,1.29,1.33"/>
    <path class="cls-1" d="M27.55,62.33c0,.74-.58,1.33-1.29,1.33s-1.3-.6-1.3-1.33.58-1.33,1.3-1.33,1.29.6,1.29,1.33"/>
    <path class="cls-1" d="M31.86,47.66c0,1.23-.97,2.22-2.16,2.22s-2.16-1-2.16-2.22.97-2.22,2.16-2.22,2.16,1,2.16,2.22"/>
    <path class="cls-1" d="M35.75,51.66c0,.25-.19.44-.43.44s-.43-.2-.43-.44.19-.44.43-.44.43.2.43.44"/>
  </g>
  <path class="cls-1" d="M46,21.59c-2.53,0-4.57-2.11-4.57-4.71s2.05-4.71,4.57-4.71,4.57,2.11,4.57,4.71-2.05,4.71-4.57,4.71M39.36,11.89c-.99,0-1.8-.83-1.8-1.85s.81-1.85,1.8-1.85,1.79.83,1.79,1.85-.8,1.85-1.79,1.85M46,8.38c-1.33,0-2.59.33-3.7.91-.33-1.36-1.52-2.37-2.94-2.37-1.67,0-3.04,1.4-3.04,3.13,0,1.46.98,2.68,2.3,3.02-.56,1.15-.89,2.44-.89,3.81,0,4.7,3.7,8.51,8.26,8.51s8.26-3.81,8.26-8.51-3.7-8.51-8.26-8.51M46,32.03c-3.54,0-6.79-1.3-9.33-3.45l.83-.95,1.74-.21c.34-.04.58-.36.54-.71-.04-.35-.35-.6-.69-.56l-1.37.17-.17-1.53c-.04-.35-.35-.6-.69-.56-.34.04-.58.36-.55.71l.21,1.9-.78.89c-2.74-2.75-4.45-6.59-4.45-10.84,0-8.35,6.6-15.14,14.7-15.14,4.64,0,8.78,2.23,11.47,5.69l-2.09-.44c-.26-.05-.52.07-.66.3l-.66,1.15c-.17.3-.08.7.22.88.1.06.21.09.31.09.21,0,.42-.11.53-.31l.44-.76,2.95.62c1.38,2.31,2.18,5.02,2.18,7.93,0,.98-.09,1.94-.27,2.87l-2.58-.69-.38-1.28c-.1-.34-.45-.53-.77-.42-.33.1-.51.46-.41.8l.48,1.63c.06.22.24.38.45.44l.83.2-.64,1.18c-.17.31-.06.7.24.87.09.05.2.08.3.08.22,0,.43-.12.54-.33l.81-1.5.27.06s.31.09.58.17c-1.74,6.37-7.42,11.06-14.16,11.06M46,.46c-8.79,0-15.94,7.37-15.94,16.42s7.15,16.42,15.94,16.42,15.94-7.37,15.94-16.42S54.79.46,46,.46"/>
  <path class="cls-1" d="M28.54,24.76c-.53,1.22-1.17,2.36-1.92,3.43-.75,1.06-1.66,1.99-2.74,2.78-1.08.79-2.36,1.41-3.84,1.86s-3.21.68-5.18.68c-2.37,0-4.48-.4-6.33-1.21-1.84-.8-3.4-1.95-4.66-3.43-1.27-1.48-2.23-3.24-2.88-5.29-.66-2.04-.98-4.32-.98-6.83,0-2.7.38-5.09,1.15-7.17.77-2.08,1.81-3.82,3.14-5.24,1.33-1.42,2.9-2.49,4.71-3.23,1.81-.74,3.78-1.11,5.9-1.11,2.34,0,4.27.27,5.79.82,1.52.55,2.85,1.34,4.01,2.36.94.84,1.71,1.75,2.32,2.73.61.98,1.12,2.02,1.52,3.11l-8.81,4.34c-.19-.64-.41-1.26-.66-1.86-.25-.59-.56-1.12-.91-1.57-.36-.45-.8-.81-1.31-1.09-.52-.27-1.12-.41-1.8-.41-1.69,0-2.9.73-3.63,2.2-.73,1.46-1.1,3.5-1.1,6.11s.45,4.54,1.36,6.01c.91,1.46,2.08,2.2,3.51,2.2s2.49-.44,3.26-1.33c.77-.88,1.34-1.95,1.71-3.21l8.39,4.34Z"/>
  <g>
    <path class="cls-1" d="M63.15,33.31V.46h12.14c2.65,0,5,.39,7.08,1.18,2.07.79,3.82,1.9,5.26,3.32,1.43,1.43,2.53,3.14,3.28,5.15.75,2,1.12,4.23,1.12,6.7s-.38,4.65-1.12,6.67c-.75,2.02-1.84,3.75-3.28,5.2-1.43,1.44-3.19,2.58-5.26,3.4-2.07.82-4.43,1.23-7.08,1.23h-12.14ZM73.43,24.44h1.91c1.72,0,3.18-.64,4.37-1.92s1.79-3.18,1.79-5.71-.6-4.5-1.79-5.71-2.65-1.82-4.37-1.82h-1.91v15.17Z"/>
    <path class="cls-1" d="M95.71,33.31V.46h23.33v8.86h-13.05v3.64h10.52v7.83h-10.52v3.59h14.01v8.91h-24.29Z"/>
  </g>
  <path class="cls-1" d="M0,56.37v-18.05h5.83l3.68,9.72,3.68-9.72h5.83v18.05h-5.39v-7.79l-2.92,7.9h-2.42l-2.92-7.9v7.79H0Z"/>
  <g>
    <path class="cls-1" d="M40.39,56.27v-17.89h5.62l4.53,8.07v-8.07h5.47v17.89h-5.18l-4.97-8.72v8.72h-5.47Z"/>
    <path class="cls-1" d="M61.9,50.5c.37.5.81.91,1.33,1.23s1.1.48,1.74.48,1.12-.08,1.47-.23c.36-.15.53-.38.53-.68,0-.18-.04-.33-.12-.47-.08-.13-.22-.26-.44-.39-.22-.12-.53-.26-.93-.4-.4-.14-.91-.3-1.54-.48-.92-.25-1.74-.53-2.47-.84-.73-.31-1.35-.69-1.86-1.14-.51-.45-.9-.97-1.17-1.58-.27-.61-.4-1.34-.4-2.2s.17-1.67.5-2.39c.33-.72.8-1.32,1.42-1.82.62-.5,1.37-.89,2.25-1.15.88-.27,1.87-.4,2.97-.4,1.56,0,2.85.21,3.87.62s1.86.97,2.54,1.66c.29.3.55.62.76.94l-4.17,2.74c-.11-.18-.24-.36-.42-.55-.17-.19-.38-.36-.62-.52-.24-.16-.53-.29-.85-.4-.32-.11-.67-.16-1.05-.16-.62,0-1.08.08-1.37.24-.29.16-.43.38-.43.64,0,.16.03.31.1.44.07.13.23.27.47.4.24.13.59.28,1.05.43s1.07.33,1.84.52c.73.18,1.43.4,2.1.67.67.27,1.26.63,1.77,1.07.51.45.92,1,1.21,1.65s.44,1.46.44,2.43-.2,1.86-.6,2.59c-.4.72-.94,1.32-1.61,1.8-.68.47-1.46.83-2.34,1.06-.89.23-1.81.35-2.79.35-1.58,0-2.89-.18-3.92-.55-1.03-.37-1.9-.89-2.59-1.57-.35-.36-.69-.81-1.04-1.37l4.37-2.66Z"/>
    <path class="cls-1" d="M77.53,56.27v-13.06h-4.58v-4.83h14.77v4.83h-4.56v13.06h-5.62Z"/>
    <path class="cls-1" d="M89.09,56.27v-17.89h12.71v4.83h-7.11v1.98h5.73v4.26h-5.73v1.96h7.63v4.85h-13.23Z"/>
    <path class="cls-1" d="M104.22,56.27v-17.89h8.2c1.02,0,1.94.14,2.76.43.82.29,1.51.69,2.07,1.21.56.52.99,1.14,1.29,1.85.29.72.44,1.5.44,2.36,0,1.23-.2,2.25-.61,3.04-.41.8-1.03,1.45-1.86,1.97l3.49,7.03h-6.25l-2.5-5.85h-1.51v5.85h-5.52ZM109.74,45.92h2.06c.61,0,1.03-.15,1.28-.44.24-.29.36-.65.36-1.06s-.12-.76-.36-1.03c-.24-.28-.67-.42-1.28-.42h-2.06v2.95Z"/>
  </g>
</svg>