<svg width="514" height="642" viewBox="0 0 514 642" fill="none" xmlns="http://www.w3.org/2000/svg">
<g filter="url(#filter0_d_2_23)">
<mask id="path-1-inside-1_2_23" fill="white">
<path fill-rule="evenodd" clip-rule="evenodd" d="M440.107 423.528C481.014 379.184 506 319.945 506 254.873C506 117.424 394.519 6 257 6C119.481 6 8 117.424 8 254.873C8 323.41 35.7182 385.476 80.5614 430.483V521.377L80.5614 521.403L80.5614 521.429V521.951H80.5683C80.8592 533.503 90.3198 542.778 101.948 542.778C113.576 542.778 123.037 533.503 123.327 521.951H123.334V464.885C151.13 482.595 182.677 494.944 216.518 500.474V605.204V605.891H216.531C217.077 620.373 234.815 632 256.618 632C278.421 632 296.159 620.373 296.705 605.891H296.718V605.204V500.597C337.877 494.003 375.666 477.327 407.469 453.183V487.436V487.854H407.475C407.697 496.669 414.915 503.746 423.788 503.746C432.661 503.746 439.88 496.669 440.102 487.854H440.107V487.436V423.528Z"/>
</mask>
<path fill-rule="evenodd" clip-rule="evenodd" d="M440.107 423.528C481.014 379.184 506 319.945 506 254.873C506 117.424 394.519 6 257 6C119.481 6 8 117.424 8 254.873C8 323.41 35.7182 385.476 80.5614 430.483V521.377L80.5614 521.403L80.5614 521.429V521.951H80.5683C80.8592 533.503 90.3198 542.778 101.948 542.778C113.576 542.778 123.037 533.503 123.327 521.951H123.334V464.885C151.13 482.595 182.677 494.944 216.518 500.474V605.204V605.891H216.531C217.077 620.373 234.815 632 256.618 632C278.421 632 296.159 620.373 296.705 605.891H296.718V605.204V500.597C337.877 494.003 375.666 477.327 407.469 453.183V487.436V487.854H407.475C407.697 496.669 414.915 503.746 423.788 503.746C432.661 503.746 439.88 496.669 440.102 487.854H440.107V487.436V423.528Z" fill="url(#paint0_radial_2_23)"/>
<path d="M440.107 423.528L434.227 418.104L432.107 420.402V423.528H440.107ZM80.5614 430.483H88.5614V427.178L86.2286 424.837L80.5614 430.483ZM80.5614 521.377L88.5614 521.382V521.377H80.5614ZM80.5614 521.403L72.5614 521.398L72.5614 521.407L80.5614 521.403ZM80.5614 521.429L88.5614 521.429L88.5614 521.424L80.5614 521.429ZM80.5614 521.951H72.5614V529.951H80.5614V521.951ZM80.5683 521.951L88.5657 521.749L88.3693 513.951H80.5683V521.951ZM123.327 521.951V513.951H115.526L115.33 521.749L123.327 521.951ZM123.334 521.951V529.951H131.334V521.951H123.334ZM123.334 464.885L127.633 458.138L115.334 450.302V464.885H123.334ZM216.518 500.474H224.518V493.675L217.809 492.579L216.518 500.474ZM216.518 605.891H208.518V613.891H216.518V605.891ZM216.531 605.891L224.526 605.59L224.236 597.891H216.531V605.891ZM296.705 605.891V597.891H289.001L288.711 605.59L296.705 605.891ZM296.718 605.891V613.891H304.718V605.891H296.718ZM296.718 500.597L295.452 492.698L288.718 493.777V500.597H296.718ZM407.469 453.183H415.469V437.065L402.632 446.811L407.469 453.183ZM407.469 487.854H399.469V495.854H407.469V487.854ZM407.475 487.854L415.472 487.653L415.276 479.854H407.475V487.854ZM440.102 487.854V479.854H432.301L432.104 487.653L440.102 487.854ZM440.107 487.854V495.854H448.107V487.854H440.107ZM498 254.873C498 317.856 473.824 375.178 434.227 418.104L445.987 428.952C488.203 383.189 514 322.034 514 254.873H498ZM257 14C390.104 14 498 121.846 498 254.873H514C514 113.002 398.933 -2 257 -2V14ZM16 254.873C16 121.846 123.896 14 257 14V-2C115.067 -2 0 113.002 0 254.873H16ZM86.2286 424.837C42.8179 381.267 16 321.208 16 254.873H0C0 325.612 28.6184 389.684 74.8942 436.13L86.2286 424.837ZM72.5614 430.483V521.377H88.5614V430.483H72.5614ZM72.5614 521.372L72.5614 521.398L88.5614 521.407L88.5614 521.382L72.5614 521.372ZM72.5614 521.407L72.5614 521.433L88.5614 521.424L88.5614 521.398L72.5614 521.407ZM72.5614 521.429V521.951H88.5614V521.429H72.5614ZM80.5614 529.951H80.5683V513.951H80.5614V529.951ZM72.5708 522.152C72.9708 538.036 85.9726 550.778 101.948 550.778V534.778C94.6669 534.778 88.7476 528.97 88.5657 521.749L72.5708 522.152ZM101.948 550.778C117.923 550.778 130.925 538.036 131.325 522.152L115.33 521.749C115.148 528.97 109.229 534.778 101.948 534.778V550.778ZM123.327 529.951H123.334V513.951H123.327V529.951ZM131.334 521.951V464.885H115.334V521.951H131.334ZM217.809 492.579C185.062 487.227 154.535 475.279 127.633 458.138L119.036 471.632C147.725 489.911 180.292 502.66 215.228 508.369L217.809 492.579ZM224.518 605.204V500.474H208.518V605.204H224.518ZM224.518 605.891V605.204H208.518V605.891H224.518ZM216.531 597.891H216.518V613.891H216.531V597.891ZM256.618 624C247.062 624 238.74 621.438 232.975 617.677C227.147 613.873 224.67 609.433 224.526 605.59L208.537 606.192C208.938 616.831 215.603 625.445 224.231 631.076C232.923 636.748 244.371 640 256.618 640V624ZM288.711 605.59C288.566 609.433 286.089 613.873 280.261 617.677C274.496 621.438 266.174 624 256.618 624V640C268.865 640 280.313 636.748 289.005 631.076C297.633 625.445 304.299 616.831 304.699 606.192L288.711 605.59ZM296.718 597.891H296.705V613.891H296.718V597.891ZM288.718 605.204V605.891H304.718V605.204H288.718ZM288.718 500.597V605.204H304.718V500.597H288.718ZM402.632 446.811C371.847 470.182 335.278 486.317 295.452 492.698L297.983 508.497C340.475 501.689 379.484 484.472 412.307 459.554L402.632 446.811ZM399.469 453.183V487.436H415.469V453.183H399.469ZM399.469 487.436V487.854H415.469V487.436H399.469ZM407.469 495.854H407.475V479.854H407.469V495.854ZM399.477 488.055C399.808 501.201 410.568 511.746 423.788 511.746V495.746C419.263 495.746 415.585 492.136 415.472 487.653L399.477 488.055ZM423.788 511.746C437.008 511.746 447.768 501.201 448.099 488.055L432.104 487.653C431.991 492.136 428.314 495.746 423.788 495.746V511.746ZM440.102 495.854H440.107V479.854H440.102V495.854ZM448.107 487.854V487.436H432.107V487.854H448.107ZM448.107 487.436V423.528H432.107V487.436H448.107Z" fill="white" mask="url(#path-1-inside-1_2_23)"/>
<path d="M257 341.3C333.029 341.3 394.666 279.697 394.666 203.702C394.666 127.707 333.029 66.1046 257 66.1046C180.971 66.1046 119.334 127.707 119.334 203.702C119.334 279.697 180.971 341.3 257 341.3Z" fill="url(#paint1_linear_2_23)" stroke="white" stroke-width="8"/>
<path fill-rule="evenodd" clip-rule="evenodd" d="M257.155 220.497C264.115 220.497 269.758 214.858 269.758 207.901C269.758 207.08 269.679 206.278 269.529 205.502C287.332 210.818 300.31 227.312 300.31 246.835C300.31 270.657 280.989 289.968 257.155 289.968C233.321 289.968 214 270.657 214 246.835C214 227.312 226.977 210.818 244.781 205.502C244.631 206.278 244.552 207.08 244.552 207.901C244.552 214.858 250.195 220.497 257.155 220.497Z" fill="#303030"/>
</g>
<defs>
<filter id="filter0_d_2_23" x="0" y="0" width="514" height="642" filterUnits="userSpaceOnUse" color-interpolation-filters="sRGB">
<feFlood flood-opacity="0" result="BackgroundImageFix"/>
<feColorMatrix in="SourceAlpha" type="matrix" values="0 0 0 0 0 0 0 0 0 0 0 0 0 0 0 0 0 0 127 0" result="hardAlpha"/>
<feOffset dy="2"/>
<feGaussianBlur stdDeviation="4"/>
<feComposite in2="hardAlpha" operator="out"/>
<feColorMatrix type="matrix" values="0 0 0 0 0 0 0 0 0 0 0 0 0 0 0 0 0 0 0.25 0"/>
<feBlend mode="normal" in2="BackgroundImageFix" result="effect1_dropShadow_2_23"/>
<feBlend mode="normal" in="SourceGraphic" in2="effect1_dropShadow_2_23" result="shape"/>
</filter>
<radialGradient id="paint0_radial_2_23" cx="0" cy="0" r="1" gradientUnits="userSpaceOnUse" gradientTransform="translate(257 101.809) rotate(90) scale(401.938 402.143)">
<stop stop-color="#84CC16"/>
<stop offset="1" stop-color="#4D7C0F"/>
</radialGradient>
<linearGradient id="paint1_linear_2_23" x1="257" y1="141.102" x2="257" y2="337.3" gradientUnits="userSpaceOnUse">
<stop stop-color="white"/>
<stop offset="1" stop-color="#B8B8B8"/>
</linearGradient>
</defs>
</svg>
