<svg width="1910" height="800" viewBox="0 0 1910 800" fill="none" xmlns="http://www.w3.org/2000/svg">
<rect x="2.5" y="2.5" width="1905" height="795" rx="122.5" fill="#17181C"/>
<rect x="2.5" y="2.5" width="1905" height="795" rx="122.5" stroke="#353841" stroke-width="5"/>
<g clip-path="url(#clip0_8_36)">
<path fill-rule="evenodd" clip-rule="evenodd" d="M153.75 489.416C148.82 481.654 148.746 471.766 153.558 463.929L334.76 168.876C344.839 152.466 369.175 153.901 377.248 171.381L542.785 529.832C548.926 543.132 541.856 558.78 527.803 562.989L270.298 640.104C259.938 643.205 248.774 639.048 242.983 629.929L153.75 489.416ZM355.667 255.147C357.413 246.467 369.327 245.216 372.845 253.342L487.03 517.091C489.179 522.057 486.504 527.784 481.311 529.33L303.396 582.346C296.856 584.295 290.592 578.591 291.935 571.911L355.667 255.147ZM1017.52 527.448H1068.1V342.357H1017.52V527.448ZM1015.36 294.514C1015.36 278.075 1024.55 269.85 1042.9 269.85C1061.25 269.85 1070.43 278.075 1070.43 294.514C1070.43 302.353 1068.14 308.45 1063.55 312.811C1058.96 317.172 1052.08 319.347 1042.9 319.347C1024.55 319.347 1015.36 311.069 1015.36 294.514ZM1709.39 441.696L1689.82 442.357C1675.11 442.802 1664.17 445.455 1656.98 450.307C1649.79 455.166 1646.2 462.555 1646.2 472.493C1646.2 486.727 1654.38 493.848 1670.75 493.848C1682.46 493.848 1691.84 490.486 1698.85 483.746C1705.88 477.018 1709.39 468.079 1709.39 456.925V441.696ZM1724.32 527.455L1714.53 502.289H1713.2C1704.69 512.998 1695.93 520.423 1686.91 524.563C1677.91 528.7 1666.16 530.764 1651.68 530.764C1633.87 530.764 1619.86 525.689 1609.63 515.536C1599.4 505.388 1594.29 490.925 1594.29 472.159C1594.29 452.518 1601.17 438.032 1614.93 428.702C1628.71 419.377 1649.46 414.216 1677.22 413.221L1709.39 412.229V404.114C1709.39 385.355 1699.77 375.971 1680.53 375.971C1665.71 375.971 1648.3 380.438 1628.29 389.382L1611.54 355.277C1632.88 344.136 1656.54 338.554 1682.52 338.554C1707.4 338.554 1726.47 343.966 1739.74 354.78C1753.01 365.596 1759.64 382.046 1759.64 404.114V527.455H1724.32ZM1446.59 527.455H1396V419.346C1396 405.995 1393.76 395.982 1389.29 389.3C1384.81 382.623 1377.76 379.28 1368.14 379.28C1355.21 379.28 1345.81 384.032 1339.95 393.52C1334.09 403.014 1331.16 418.634 1331.16 440.375V527.455H1280.57V342.363H1319.22L1326.02 366.039H1328.84C1333.81 357.545 1341 350.893 1350.4 346.093C1359.8 341.288 1370.58 338.886 1382.74 338.886C1410.49 338.886 1429.28 347.939 1439.13 366.039H1443.6C1448.58 357.429 1455.91 350.752 1465.58 346.005C1475.26 341.259 1486.17 338.886 1498.34 338.886C1519.34 338.886 1535.24 344.27 1546.02 355.03C1556.8 365.793 1562.19 383.039 1562.19 406.761V527.455H1511.44V419.346C1511.44 405.995 1509.19 395.982 1504.73 389.3C1500.24 382.623 1493.19 379.28 1483.57 379.28C1471.19 379.28 1461.93 383.7 1455.79 392.527C1449.66 401.359 1446.59 415.371 1446.59 434.575V527.455ZM1226.37 515.866C1239.59 505.934 1246.2 491.477 1246.2 472.489C1246.2 463.336 1244.6 455.438 1241.39 448.814C1238.18 442.191 1233.2 436.345 1226.46 431.264C1219.72 426.191 1209.1 420.73 1194.61 414.879C1178.36 408.366 1167.83 403.45 1163.02 400.141C1158.22 396.832 1155.81 392.916 1155.81 388.386C1155.81 380.33 1163.27 376.302 1178.2 376.302C1186.6 376.302 1194.84 377.577 1202.91 380.107C1210.98 382.65 1219.66 385.9 1228.95 389.877L1244.21 353.457C1223.09 343.746 1201.36 338.889 1179.03 338.889C1155.58 338.889 1137.48 343.384 1124.72 352.38C1111.94 361.377 1105.55 374.098 1105.55 390.538C1105.55 400.141 1107.08 408.232 1110.12 414.796C1113.16 421.363 1118.02 427.184 1124.72 432.259C1131.4 437.339 1141.88 442.857 1156.14 448.814C1166.09 453.011 1174.05 456.682 1180.02 459.827C1186 462.973 1190.19 465.791 1192.63 468.27C1195.06 470.754 1196.28 473.98 1196.28 477.955C1196.28 488.548 1187.1 493.845 1168.74 493.845C1159.79 493.845 1149.42 492.354 1137.65 489.379C1125.87 486.396 1115.29 482.702 1105.89 478.282V520.005C1114.18 523.536 1123.08 526.213 1132.59 528.038C1142.1 529.855 1153.59 530.766 1167.09 530.766C1193.4 530.766 1213.16 525.798 1226.37 515.866ZM990.685 340.375C986.152 339.382 980.459 338.886 973.601 338.886C962.1 338.886 951.46 342.059 941.68 348.407C931.888 354.757 924.122 363.116 918.371 373.486H915.888L908.421 342.363H870.11V527.455H920.696V433.254C920.696 418.354 925.199 406.761 934.206 398.484C943.226 390.205 955.798 386.066 971.944 386.066C977.807 386.066 982.778 386.621 986.873 387.721L990.685 340.375ZM721.223 399.311H738.14C753.952 399.311 765.777 396.195 773.63 389.957C781.483 383.725 785.406 374.641 785.406 362.721C785.406 350.696 782.115 341.811 775.539 336.07C768.956 330.329 758.65 327.458 744.605 327.458H721.223V399.311ZM837.316 360.904C837.316 386.954 829.164 406.875 812.85 420.666C796.546 434.468 773.354 441.361 743.283 441.361H721.223V527.452H669.81V285.41H747.26C776.675 285.41 799.034 291.729 814.349 304.368C829.663 317.007 837.316 335.855 837.316 360.904Z" fill="white"/>
</g>
<defs>
<clipPath id="clip0_8_36">
<rect width="1610" height="500" fill="white" transform="translate(150 150)"/>
</clipPath>
</defs>
</svg>
